<?xml version="1.0" encoding="UTF-8"?>
<svg xmlns="http://www.w3.org/2000/svg" version="1.1" viewBox="0 0 841.89 381.55">
  <defs>
    <style>
      .cls-1 {
        fill: none;
      }

      .cls-2 {
        fill: #f7cb19;
      }
    </style>
  </defs>
  <!-- Generator: Adobe Illustrator 28.7.1, SVG Export Plug-In . SVG Version: 1.2.0 Build 142)  -->
  <g>
    <g id="Layer_1">
      <g>
        <path class="cls-1" d="M61.31,120.67s0-.02,0-.03c0,.01,0,.02,0,.03Z"/>
        <path class="cls-1" d="M142.49,221.12s.02.09.03.14c0-.05-.02-.09-.03-.14Z"/>
        <path class="cls-1" d="M135.62,232.57c-.16-.51-.3-1.02-.42-1.53.12.51.26,1.02.42,1.53Z"/>
        <path class="cls-1" d="M142.53,221.49c0-.07,0-.13,0-.18,0,.06,0,.12,0,.18-.09,7.9.1,15.81-.06,23.7,0,0,0,0,0,0,.16-7.89-.03-15.8.06-23.7Z"/>
        <path class="cls-1" d="M89.03,76.23c1.2-.91,5.33,4,6.88,4.93,0,0,0,0,0,0-1.55-.93-5.68-5.84-6.88-4.93-2.85,2.88-5.74,5.72-8.45,8.73-8.21,9.38-14.46,20.52-18.28,32.42,3.81-11.9,10.07-23.04,18.28-32.42,2.71-3.01,5.61-5.85,8.45-8.73Z"/>
        <path class="cls-1" d="M141.6,220.6c.51-.03.78.1.88.46-.1-.36-.37-.49-.88-.46-9.99.18-19.83-2.51-28.99-6.33-8.63-3.73-16.51-9.13-23.23-15.72,6.72,6.59,14.6,11.99,23.23,15.72,9.16,3.82,19,6.51,28.99,6.33Z"/>
        <path class="cls-1" d="M69.41,166.04c.91,2.96,2.02,5.85,3.29,8.67-1.27-2.82-2.38-5.72-3.29-8.67-5.42-17.75-4.27-36.72,2.59-53.38-6.86,16.66-8.01,35.63-2.59,53.38Z"/>
        <path class="cls-1" d="M131,229.33c1.08.18,2.17.34,3.27.47.07,0,.13.02.19.04-.06-.01-.12-.03-.19-.04-1.09-.13-2.18-.29-3.27-.47Z"/>
        <path class="cls-1" d="M223.62,108.87h0c-7.37-17.96-20.46-33.6-38.51-42.97-2.64-1.48-5.38-2.73-8.2-3.81,2.82,1.08,5.56,2.34,8.2,3.82,18.04,9.38,31.13,25.01,38.51,42.97Z"/>
        <path class="cls-1" d="M155.63,56.71c-1.2-.15-2.13,0-3.04-1.36-.85-1.57-3.21-4.15-5.21-6.35,2,2.2,4.36,4.78,5.21,6.35.92,1.35,1.84,1.21,3.04,1.36Z"/>
        <path class="cls-1" d="M131.48,56.81c2.19-.43,3.11-.72,3.87-1.39-.75.67-1.68.96-3.87,1.39Z"/>
        <path class="cls-1" d="M100.03,77.72c.31.09.61.02.93-.15-.32.17-.62.24-.93.15Z"/>
        <path class="cls-1" d="M93.82,72.8c8.66-7.27,19.14-12.02,30.12-14.51-10.98,2.49-21.46,7.25-30.12,14.51.81.66,1.58,1.28,2.34,1.89-.76-.61-1.53-1.23-2.34-1.89Z"/>
        <path class="cls-1" d="M107.87,73.46c4.98-2.58,10.28-4.55,15.69-6.08,1.15-.3,2.31-.58,3.48-.84-1.17.26-2.33.54-3.48.84-5.41,1.53-10.7,3.5-15.69,6.08Z"/>
        <path class="cls-1" d="M142.18,60.42c0-4.44.06-8.87-.05-13.31h0c.12,4.44.05,8.87.05,13.31Z"/>
        <path class="cls-1" d="M135.58,55.19s-.07.07-.11.11c.04-.03.07-.07.11-.11Z"/>
        <path class="cls-1" d="M128.6,109.67c-.05-.07-.1-.14-.16-.2.06.06.11.13.16.2,1.29,1.93,2.62,3.82,3.93,5.74,3.49,5.19,7.07,10.34,10.62,15.5-3.55-5.16-7.13-10.3-10.62-15.5-1.31-1.91-2.64-3.81-3.93-5.74Z"/>
        <path class="cls-1" d="M159.52,154.43c-.44-7-.53-14.02-.52-21.04-.01,7.02.07,14.04.52,21.04Z"/>
        <path class="cls-1" d="M195.32,104.32c.04.05.08.11.12.16,1.07,1.41,2.05,2.89,3.01,4.39h0c-.96-1.5-1.93-2.98-3.01-4.39-.04-.05-.08-.11-.12-.16-1.67-2.12-3.46-4.14-5.34-6.07-.21-.21-.42-.42-.63-.63.21.21.42.42.63.63,1.89,1.92,3.67,3.95,5.34,6.07Z"/>
        <path class="cls-1" d="M137.66,79.46c-.28.03-.55.07-.83.11-22.21,2.56-40.97,16.44-50.37,35.72,9.4-19.28,28.16-33.15,50.37-35.72.28-.03.55-.08.83-.1.06,0,.13-.01.19-.02,2.38-.25,4.79-.32,7.21-.29.67,0,1.33.05,2,.08.08,0,.16,0,.24.01-.08,0-.16,0-.24-.01-.67-.03-1.33-.07-2-.08-2.42-.03-4.84.04-7.21.29-.06,0-.12.01-.19.02Z"/>
        <path class="cls-1" d="M154.18,79.88c.75.12,1.5.26,2.24.4.44.09.89.17,1.33.26.01,0,.03,0,.04,0-.01,0-.03,0-.04,0-.44-.09-.89-.18-1.33-.26-.74-.14-1.49-.28-2.24-.4-.06,0-.12-.02-.18-.03,0,0,0,0,0,0,0,0,0,0,0,0,.06,0,.12.02.18.03Z"/>
        <path class="cls-1" d="M170.89,85c1.71.79,3.41,1.67,5.09,2.63-1.66-.95-3.35-1.83-5.09-2.63-.51-.23-1.02-.43-1.53-.65-.05-.02-.11-.04-.16-.07.05.02.11.04.16.07.51.22,1.03.42,1.53.65Z"/>
        <path class="cls-1" d="M165.03,108.87c-1.24-.05-2.3.27-3.17.85.87-.57,1.93-.89,3.17-.85,1.94,0,3.9,0,9.57,0-5.67,0-7.63,0-9.57,0Z"/>
        <path class="cls-1" d="M186.29,94.76s.04.03.06.05c.53.46,1.05.93,1.56,1.41-.51-.48-1.03-.95-1.56-1.41-.02-.02-.04-.03-.06-.05-1.51-1.3-3.14-2.47-4.76-3.63-.98-.7-1.98-1.36-3-1.99,1.01.63,2,1.3,3,1.99,1.63,1.16,3.25,2.32,4.76,3.63Z"/>
        <path class="cls-1" d="M159.06,115.93c0,.83,0,1.66,0,2.49,0-.83,0-1.66,0-2.49-.02-.47,0-.94.06-1.4-.06.46-.08.93-.06,1.4Z"/>
        <path class="cls-1" d="M164.51,82.45c1.1.37,2.19.79,3.28,1.24-1.08-.45-2.17-.87-3.28-1.24Z"/>
        <path class="cls-1" d="M106.63,166.51c-.22.03-.44.05-.66.07.22-.02.44-.05.66-.07Z"/>
        <path class="cls-1" d="M161.41,81.48c1.04.3,2.06.63,3.09.96-1.03-.35-2.06-.67-3.09-.96Z"/>
        <path class="cls-1" d="M83.91,121.24c.16-.43.32-.85.49-1.27-.17.42-.34.84-.49,1.27-.03.07-.05.14-.08.21-.9,2.44-1.65,4.95-2.24,7.52.6-2.57,1.35-5.08,2.24-7.52.03-.07.05-.14.08-.21Z"/>
        <path class="cls-1" d="M161.1,81.39s.04.01.07.02c-.02,0-.04-.01-.07-.02Z"/>
        <path class="cls-1" d="M80.04,140.28c-.05,1.03-.07,2.07-.06,3.11,0,1.95.11,3.92.3,5.91-.19-1.99-.29-3.96-.3-5.91,0-1.04.02-2.08.06-3.11Z"/>
        <path class="cls-1" d="M113.95,165.61c.26-.04.52-.08.78-.12.59-.1.98-.17,1.24-.27-.26.1-.65.17-1.24.27-.26.05-.52.08-.78.12Z"/>
        <path class="cls-1" d="M116.45,164.6c.03-.21.03-.48.03-.84,0-4.18,0-8.36,0-12.54,0,4.18,0,8.36,0,12.54,0,.36,0,.63-.03.84Z"/>
        <path class="cls-1" d="M98.62,166.84c1.61.28,4.58.05,7.35-.26-2.76.31-5.74.54-7.35.26Z"/>
        <path class="cls-1" d="M801.46,202.28c.17-.14.31-.32.4-.54-.09.22-.22.4-.4.54Z"/>
        <path class="cls-1" d="M800.45,202.64c.17,0,.33-.02.49-.07-.16.05-.32.08-.49.07Z"/>
        <path class="cls-1" d="M801.78,198.92l.05.73-.05-.73-.08-1.16c-.03-.41.11-.76.35-1.02-.23.26-.38.61-.35,1.02l.08,1.16Z"/>
        <path class="cls-1" d="M791.34,197.13c.06-.29.03-.56-.07-.8.09.24.12.52.07.8l-.07.37h0s.07-.37.07-.37Z"/>
        <path class="cls-1" d="M803.88,196.37c-.09-.05-.18-.03-.27-.06-.04-.01-.08-.02-.12-.03.04,0,.08.02.12.03.09.03.18.01.27.06l1.87,1.03.32.18-.32-.18-1.87-1.03Z"/>
        <path class="cls-1" d="M798.91,201.31l.26.56c.03.06.06.11.09.16-.03-.05-.06-.1-.09-.16l-.26-.56Z"/>
        <path class="cls-1" d="M804.42,180.85c-.54.06-1.04-.19-1.34-.61.3.41.8.66,1.34.61Z"/>
        <path class="cls-1" d="M809.39,179.74c.25.21.4.45.48.77.04.17.07.35.06.53.01-.18-.01-.36-.06-.53-.08-.31-.23-.56-.48-.77-.37-.31-.85-.5-1.41-.27l-.95.38.95-.38c.56-.23,1.04-.04,1.41.27Z"/>
        <path class="cls-1" d="M803.49,175.64c.04-.36-.05-.67-.22-.91h0c.17.25.26.55.22.91Z"/>
        <path class="cls-1" d="M807.35,186.53c-.2-.11-.36-.24-.49-.42-.12-.18-.2-.38-.25-.58.04.21.12.41.25.58.12.18.29.31.49.42Z"/>
        <polygon class="cls-1" points="810.55 187.42 809.78 187.23 808.36 186.88 809.78 187.23 810.55 187.42"/>
        <path class="cls-1" d="M808.67,195.81c.13.15.22.32.28.48-.06-.16-.15-.33-.28-.48l-1.56-1.86-.55-.65.55.66,1.56,1.86Z"/>
        <path class="cls-1" d="M806.24,192.8c-.21-.52-.09-1.1.25-1.5-.35.4-.46.98-.25,1.5Z"/>
        <path class="cls-1" d="M795.15,198.63l-.2.32.2-.32c.08-.12.17-.23.27-.32-.1.09-.19.2-.27.32Z"/>
        <path class="cls-1" d="M808.52,197.84s-.04.03-.06.05c.02-.02.04-.03.06-.05Z"/>
        <path class="cls-1" d="M792.3,179.27s.01-.03.02-.05c0,.02-.01.03-.02.05Z"/>
        <path class="cls-1" d="M792.44,178.9s0-.05.01-.08c0,.03,0,.05-.01.08Z"/>
        <path class="cls-1" d="M792.38,179.09s.02-.06.03-.09c0,.03-.02.06-.03.09Z"/>
        <path class="cls-1" d="M794.31,173.67c-.91-.43-2.17.19-2.09,1.42l.21,2.95-.21-2.95c-.09-1.23,1.18-1.85,2.09-1.42Z"/>
        <path class="cls-1" d="M806.3,192.92c.04.08.09.17.16.24-.06-.08-.11-.16-.16-.24Z"/>
        <path class="cls-1" d="M799.01,177.61l.34-.54-.34.54c-.62.99-2.09.9-2.58-.16l-.96-2.06.96,2.06c.49,1.06,1.96,1.15,2.58.16Z"/>
        <path class="cls-1" d="M792.47,178.69s0,0,0,0c0,0,0,0,0,0Z"/>
        <path class="cls-1" d="M784.65,194.36l2.02-1.89.28-.26-.28.26-2.02,1.89c-.49.45-.56,1.05-.38,1.54-.18-.5-.11-1.09.38-1.54Z"/>
        <path class="cls-1" d="M793.2,201.72s-.02.02-.03.03c0-.01.02-.02.03-.03Z"/>
        <path class="cls-1" d="M793.15,201.78c-.13.13-.27.23-.42.3.15-.07.3-.17.42-.3Z"/>
        <path class="cls-1" d="M787.47,191.58s0,0,0,0c0,0,0,0,0,0Z"/>
        <path class="cls-1" d="M785.17,179.22s0-.02.01-.04c0,.01,0,.02-.01.04Z"/>
        <path class="cls-1" d="M787.59,191.03s0-.1,0-.14c0,.05,0,.1,0,.14Z"/>
        <path class="cls-1" d="M787.59,191.06c0,.16-.04.32-.1.47.06-.15.1-.31.1-.47Z"/>
        <path class="cls-1" d="M787.31,178.22l2.98,1.65c.75.42,1.63.09,2-.57-.37.67-1.24.99-2,.57l-2.98-1.65c-.88-.49-1.78.01-2.07.76.29-.75,1.19-1.25,2.07-.76Z"/>
        <path class="cls-1" d="M807.49,186.6s.09.06.15.08c-.05-.02-.1-.06-.15-.08Z"/>
        <path class="cls-1" d="M811.77,188.02c.23.29.33.65.31,1,.02-.36-.08-.72-.31-1Z"/>
        <path class="cls-1" d="M783.36,185.86l3.38-.42c.85-.1,1.36-.87,1.28-1.62.08.75-.43,1.52-1.28,1.62l-3.38.42c-.37.05-.64.21-.84.44.19-.23.46-.39.84-.44Z"/>
        <path class="cls-1" d="M108.35,196.67s.01,0,.02.01c1.03.7,2.08,1.37,3.16,2.01-1.07-.64-2.12-1.31-3.16-2.01,0,0-.01,0-.02-.01Z"/>
        <path class="cls-1" d="M170.28,202.23c-.6.27-1.2.53-1.81.78.61-.25,1.21-.51,1.81-.78Z"/>
        <path class="cls-1" d="M204.12,120.06c.6,1.52,1.15,3.06,1.65,4.62-.5-1.56-1.06-3.1-1.65-4.62Z"/>
        <path class="cls-1" d="M207.92,134.61s0-.07-.01-.1c-.02-.16-.05-.32-.08-.47.03.16.06.31.08.47,0,.03,0,.07.01.1Z"/>
        <path class="cls-1" d="M207.72,133.45c-.02-.1-.04-.19-.05-.29-.13-.79-.26-1.57-.41-2.36.15.79.28,1.57.41,2.36.02.1.04.19.05.29Z"/>
        <path class="cls-1" d="M97.82,187.77c-.16-.17-.32-.34-.48-.51.16.17.32.34.48.51,2.25,2.33,4.67,4.5,7.23,6.49-2.56-1.99-4.98-4.16-7.23-6.49Z"/>
        <path class="cls-1" d="M140.99,207.62c-1.1-.07-2.19-.16-3.27-.28,1.09.12,2.19.21,3.27.28Z"/>
        <path class="cls-1" d="M121.69,203.6c-1.51-.57-2.99-1.19-4.45-1.86,1.46.68,2.94,1.3,4.45,1.86Z"/>
        <path class="cls-1" d="M155.36,170.38c1.64,2.4,3.3,4.79,4.98,7.15.19.26.61.49.93.49,3.66-.16,9.11,1.33,10.59-3.31.75-15.22.24-30.55.26-45.82-.02,15.28.49,30.6-.26,45.82-1.48,4.64-6.93,3.15-10.59,3.31-.33,0-.75-.23-.93-.49-1.69-2.37-3.34-4.76-4.98-7.15-3.01-4.39-6-8.79-9-13.18h0c3.01,4.39,6,8.79,9,13.18Z"/>
        <path class="cls-1" d="M208.4,139.99c.02.31.03.63.05.94-.01-.31-.03-.63-.05-.94Z"/>
        <path class="cls-1" d="M174.61,119.91c1.74-.02,3.51-.03,29.43-.03,0,0,0,0,0,0-25.92,0-27.69.01-29.43.03-2.01.02-2.37.77-2.43,1.98.05-1.22.42-1.96,2.43-1.98Z"/>
        <path class="cls-1" d="M93.59,181.08c2.19-.52,3.19-3.36,5.57-3.04,7.83.03,15.66,0,23.49.03,1.71,0,3.38-.82,4.63-2.06-1.25,1.24-2.92,2.07-4.63,2.06-7.83-.03-15.66,0-23.49-.03-2.38-.32-3.38,2.52-5.57,3.04-.36.12-.55.3-.61.53.06-.23.25-.41.61-.53Z"/>
        <path class="cls-1" d="M116.78,201.52c-.32-.15-.64-.31-.95-.48.31.16.63.32.95.48Z"/>
        <path class="cls-1" d="M172.13,128.89s0-.05,0-.08c0,.03,0,.05,0,.08Z"/>
        <path class="cls-1" d="M128.41,205.66c-.34-.09-.67-.17-1.01-.26.33.09.67.18,1.01.26Z"/>
        <path class="cls-1" d="M94.72,184.4c.34.41.74.78,1.09,1.18.11.12.22.24.33.36-.11-.12-.22-.24-.33-.36-.29-.34-.66-.74-1.09-1.18Z"/>
        <path class="cls-1" d="M127.3,176c1.24-1.24,2.06-2.9,2.05-4.58-.01-1.13-.02-2.26-.02-3.4,0,1.13,0,2.27.02,3.4,0,1.67-.81,3.34-2.05,4.58Z"/>
        <path class="cls-1" d="M208.49,145.98c0,.13,0,.26-.02.39,0-.13,0-.26.02-.39.05-1.2.04-2.41,0-3.63.03,1.21.04,2.43,0,3.63Z"/>
        <path class="cls-1" d="M208.39,139.8c-.03-.46-.06-.91-.1-1.37-.04-.46-.07-.91-.11-1.36.04.45.07.91.11,1.36.04.46.07.91.1,1.37Z"/>
        <rect class="cls-1" x="206.72" y="128.28" width=".06" height="0"/>
        <path class="cls-1" d="M166.7,203.7c.17-.06.34-.12.52-.19.19-.07.37-.15.56-.22-.19.07-.37.15-.56.22-.17.07-.34.12-.52.19Z"/>
        <path class="cls-1" d="M124.7,204.61s.02,0,.03,0c.83.26,1.66.51,2.5.74-.84-.23-1.68-.47-2.5-.74,0,0-.02,0-.03,0Z"/>
        <path class="cls-1" d="M112.99,199.52c.33.18.65.35.98.53.02.01.05.03.07.04-.02-.01-.05-.03-.07-.04-.33-.18-.65-.35-.98-.53Z"/>
        <path class="cls-1" d="M143.44,152.91c-5.05-7.32-10.53-14.39-14.56-22.34,0,0,0,0,0,0,4.03,7.95,9.5,15.02,14.56,22.34h0Z"/>
        <path class="cls-1" d="M176.56,213.77c4.13-1.87,8.04-4.18,11.75-6.78-3.71,2.61-7.63,4.91-11.75,6.78Z"/>
        <path class="cls-1" d="M168.83,216.72c-7.25,2.4-14.87,4.08-22.48,3.89h0c7.61.19,15.23-1.49,22.48-3.89Z"/>
        <path class="cls-1" d="M146.36,244.55h0c3.38-4.64,6.67-9.17,6.82-15.01h0c-.15,5.84-3.43,10.37-6.82,15.01Z"/>
        <path class="cls-1" d="M206.3,189.7c6.62-8.7,11.21-18.85,13.8-29.45.7-3.05,1.21-6.1,1.53-9.14-.32,3.05-.82,6.1-1.53,9.14-2.59,10.6-7.17,20.75-13.8,29.45-2.59,3.38-5.39,6.62-8.51,9.54h0c3.12-2.91,5.92-6.15,8.51-9.53Z"/>
        <path class="cls-1" d="M220.17,126.25c-.07-.31-.14-.62-.21-.94.07.31.15.62.21.94Z"/>
        <path class="cls-1" d="M227.38,119.88c.34,1.27.65,2.55.93,3.84-.28-1.29-.59-2.57-.93-3.84-3.15,0-6.13,0-8.9,0,.08.27.16.54.24.81-.08-.27-.16-.54-.24-.81,2.77,0,5.75,0,8.9,0Z"/>
        <path class="cls-1" d="M203.74,204.85c-.06.06-.12.11-.17.16h0c.05-.05.11-.1.17-.16,1.01-.96,1.99-1.94,2.96-2.94-.96,1-1.95,1.98-2.96,2.94Z"/>
        <path class="cls-1" d="M219.33,122.81c-.1-.38-.21-.76-.31-1.13.11.38.21.75.31,1.13Z"/>
        <path class="cls-1" d="M244.23,108.87c-3.91,0-7.62,0-11.13,0,3.51,0,7.22,0,11.13,0Z"/>
        <path class="cls-1" d="M235.08,164.84c.18-.66.35-1.32.51-1.99-.16.66-.33,1.33-.51,1.99Z"/>
        <path class="cls-1" d="M232.89,171.88c.14-.41.29-.81.42-1.22-.14.41-.28.82-.42,1.22Z"/>
        <path class="cls-1" d="M303.18,121.75c.16-.07.32-.14.48-.21-.16.08-.32.15-.48.21Z"/>
        <path class="cls-1" d="M297.18,122.03c-1.37-.42-2.61-1.17-3.61-2.15-24.16,0-43.3,0-58.47,0,0,0,0,0,0,0,15.18,0,34.31,0,58.47,0,1.01.98,2.24,1.73,3.61,2.15Z"/>
        <path class="cls-1" d="M238.07,139.96c.04.93.06,1.86.07,2.79-.07,6.77-.94,13.46-2.51,19.97,1.58-6.5,2.44-13.19,2.51-19.97,0-.93-.03-1.86-.07-2.79Z"/>
        <path class="cls-1" d="M108.4,55.16c3.31-1.4,6.71-2.6,10.21-3.54.21-.07.43-.14.64-.2-.22.07-.43.13-.64.2-3.49.94-6.89,2.13-10.21,3.54Z"/>
        <path class="cls-1" d="M764.41,186.93c.44-2.49,1.21-4.87,2.25-7.1-1.04,2.22-1.81,4.61-2.25,7.1h0Z"/>
        <path class="cls-1" d="M76.07,206.23c14.45,15.88,53.44,31.44,57.56,33.49-4.12-2.05-43.11-17.62-57.56-33.49-19.53-20.32-27.31-46.7-24.72-72.3-2.59,25.6,5.19,51.98,24.72,72.3Z"/>
        <path class="cls-1" d="M137.55,43.92c.86-.86,1.72-1.71,2.57-2.58-.85.87-1.71,1.72-2.57,2.58Z"/>
        <path class="cls-1" d="M157.11,48.77c.11.02.23.05.34.07.95.18,1.89.36,2.84.56-.94-.19-1.89-.38-2.84-.56-.11-.02-.22-.05-.34-.07Z"/>
        <path class="cls-1" d="M764.41,196.88H219.73c-8.66,11.92-19.96,21.96-33,28.95-7.47,4.08-15.38,7.06-23.63,9.1-3.02,1-7.65,3.94-8.36,4.85-3.04,3.38-6.08,6.75-9.12,10.14-.53.42-1.15,2.09-1.93,1.1-1-1.15-2.01-2.3-3.03-3.44,1.02,1.14,2.03,2.28,3.03,3.44.78.98,1.4-.69,1.93-1.1,3.04-3.38,6.08-6.76,9.12-10.14.71-.91,5.33-3.85,8.36-4.85,8.26-2.05,16.16-5.03,23.63-9.1,13.04-6.99,24.34-17.03,33-28.95h544.67c1.74,9.78,8.47,17.74,17.48,21.3,0,0,0,0,0,0-9.01-3.56-15.75-11.52-17.48-21.3Z"/>
        <path class="cls-1" d="M176.85,53.78c-.31-.11-.63-.2-.94-.31.31.1.63.2.94.31,25.68,9.05,45.19,30.12,54.75,55.1h0c-9.56-24.98-29.07-46.05-54.75-55.1Z"/>
        <path class="cls-1" d="M308.47,111.39s-.02-.09-.03-.14c.01.05.02.09.03.14Z"/>
        <path class="cls-1" d="M308.72,113.49c0-.46-.03-.91-.1-1.35.07.44.1.89.1,1.35,0,3.38-1.87,6.31-4.64,7.83,2.76-1.52,4.64-4.45,4.64-7.83Z"/>
        <path class="cls-1" d="M126.28,176.85c.18-.13.35-.26.52-.4-.17.14-.34.28-.52.4Z"/>
        <polygon class="cls-1" points="128.89 130.57 128.89 130.57 128.89 130.58 128.89 130.57"/>
        <path class="cls-1" d="M132.23,136.29c.09.14.17.28.26.42-.09-.14-.18-.28-.26-.42Z"/>
        <path class="cls-1" d="M93.44,182.93s-.05-.08-.08-.11c.02.04.05.08.08.11Z"/>
        <path class="cls-1" d="M93.26,182.66s-.04-.06-.05-.09c.02.03.04.06.05.09Z"/>
        <path class="cls-1" d="M810.98,187.53l-.43-.11-.78-.19-1.42-.35-.68-.17s-.03-.01-.04-.02c-.05-.02-.1-.06-.15-.08-.01,0-.02-.01-.03-.02-.04-.02-.07-.04-.11-.06-.2-.11-.36-.24-.49-.42-.12-.18-.2-.38-.25-.58-.1-.46.01-.95.41-1.32l.94-.88,1.24-1.16.3-.28c.27-.26.39-.55.41-.85.01-.18-.01-.36-.06-.53-.08-.31-.23-.56-.48-.77-.37-.31-.85-.5-1.41-.27l-.95.38-2.2.89c-.14.05-.27.09-.41.1-.54.06-1.04-.19-1.34-.61-.22-.31-.33-.71-.25-1.14l.03-.18.61-3.16s0-.08.01-.13c.04-.36-.05-.67-.22-.91h0c-.14-.2-.34-.37-.56-.48-.07-.03-.11-.08-.18-.11,0,0,0,0,0,0h0c-.07-.02-.14-.04-.21-.06,0,0-.01,0-.02,0-.23-.04-.47-.04-.69.03-.08.02-.15.05-.22.09-.22.11-.41.28-.57.53l-1.36,2.18-.11.17-.34.54c-.62.99-2.09.9-2.58-.16l-.96-2.06-.48-1.03c-.16-.34-.4-.57-.68-.7-.91-.43-2.17.19-2.09,1.42l.21,2.95.03.44c0,.07,0,.14,0,.21,0,0,0,0,0,0,0,.04-.01.08-.02.12,0,.03,0,.05-.01.08,0,.03-.02.07-.03.1,0,.03-.02.06-.03.09-.02.05-.04.09-.06.13,0,.02-.01.03-.02.05,0,.01-.01.02-.02.03-.37.67-1.24.99-2,.57l-2.98-1.65c-.88-.49-1.78.01-2.07.76-.02.06-.04.13-.06.19,0,.01,0,.02-.01.04-.08.39,0,.83.32,1.22l2.19,2.61c.2.24.31.51.34.78.08.75-.43,1.52-1.28,1.62l-3.38.42c-.37.05-.64.21-.84.44-.16.18-.26.4-.32.64-.19.72.08,1.55.99,1.78l3.3.82c.07.02.12.08.19.11.54.22.87.72.92,1.24,0,.05,0,.1,0,.14,0,.01,0,.02,0,.03,0,.16-.04.32-.1.47,0,.02-.01.03-.02.05,0,0,0,0,0,0-.08.16-.18.32-.33.45l-.19.18-.28.26-2.02,1.89c-.49.45-.56,1.05-.38,1.54.26.71,1.04,1.22,1.91.87l.48-.2,2.67-1.08c.81-.33,1.65.12,1.93.84.09.24.12.52.07.8l-.07.37h0s-.02.11-.02.11l-.55,2.85c-.05.23-.03.44.02.63,0,.02,0,.04.02.07.09.27.27.49.5.66.06.04.11.08.17.12.02.01.04.04.06.06.03.03.06.06.1.08,0,0,0,0,.02.01h0c.23.09.47.13.72.11.15-.01.3-.06.44-.12.15-.07.3-.17.42-.3,0,0,.02-.02.03-.02,0-.01.02-.02.03-.03.05-.06.1-.12.15-.2l1.45-2.33.15-.24.2-.32c.08-.12.17-.23.27-.32.7-.63,1.88-.45,2.31.48l1.18,2.52.26.56c.03.06.06.11.09.16.25.39.63.54,1.02.6.06,0,.11,0,.17.01.17,0,.33-.02.49-.07.06-.02.12-.04.18-.07.12-.06.23-.13.34-.22.17-.14.31-.32.4-.54.07-.17.1-.36.09-.58l-.04-.57-.07-.94-.05-.73-.08-1.16c-.03-.41.11-.76.35-1.02.21-.23.49-.4.8-.47.21-.05.43-.05.65,0,.04,0,.08.02.12.03.09.03.18.01.27.06l1.87,1.03.32.18.79.44c.59.33,1.18.21,1.6-.13.02-.02.04-.03.06-.05.42-.37.63-.98.43-1.55-.06-.16-.15-.33-.28-.48l-1.56-1.86-.55-.65-.08-.09s-.02-.03-.03-.04c-.06-.08-.11-.16-.16-.24-.02-.04-.04-.08-.05-.12-.21-.52-.09-1.1.25-1.5.22-.26.54-.45.93-.5l.98-.12,2.4-.3c.8-.1,1.23-.72,1.27-1.36.02-.36-.08-.72-.31-1-.18-.23-.44-.41-.79-.5Z"/>
        <path class="cls-1" d="M132.87,137.3c.15.24.3.47.45.7-.15-.24-.3-.47-.45-.7Z"/>
        <path class="cls-1" d="M166.7,203.7c.17-.06.34-.12.52-.19.19-.07.37-.15.56-.22-.19.07-.37.15-.56.22-.17.07-.34.12-.52.19Z"/>
        <path class="cls-1" d="M170.28,202.23c-.6.27-1.2.53-1.81.78.61-.25,1.21-.51,1.81-.78Z"/>
        <path class="cls-1" d="M93.64,183.19s-.07-.09-.1-.13c.03.04.07.09.1.13Z"/>
        <path class="cls-1" d="M204.12,120.06c.6,1.52,1.15,3.06,1.65,4.62-.5-1.56-1.06-3.1-1.65-4.62Z"/>
        <path class="cls-1" d="M137.84,79.44c-.06,0-.12.01-.19.02-.28.03-.55.07-.83.11-22.21,2.56-40.97,16.44-50.37,35.72-.63,1.29-1.21,2.6-1.75,3.93-.1.25-.21.51-.31.76-.17.42-.34.84-.49,1.27-.03.07-.05.14-.08.21-.9,2.44-1.65,4.95-2.24,7.52-.85,3.65-1.37,7.43-1.55,11.31-.05,1.03-.07,2.07-.06,3.11,0,1.95.11,3.92.3,5.91.45,4.62,1.4,9.35,2.89,14.15.21.67.42,1.34.65,2.01,0,0,.02-.01.03-.02,3.92-3.37,10.35-3.51,13.64.88.16.25.56.42,1.14.52,1.61.28,4.58.05,7.35-.26.22-.02.44-.05.66-.07,2.31-.27,4.38-.56,5.25-.61.69-.08,1.38-.18,2.06-.29.26-.04.52-.08.78-.12.59-.1.98-.17,1.24-.27.31-.12.43-.28.48-.62.03-.21.03-.48.03-.84,0-4.18,0-8.36,0-12.54,0-12.58.01-25.16-.05-37.73.45-4.87,3.83-4.7,9.74-4.67,1.1.05,1.79.13,2.27.65.06.06.11.13.16.2,1.29,1.93,2.62,3.82,3.93,5.74,3.49,5.19,7.07,10.34,10.62,15.5,5.64,8.19,11.23,16.42,16.33,24.95.04-.01.09-.03.13-.04-.03-.46-.06-.92-.09-1.38-.44-7-.53-14.02-.52-21.04,0-4.99.06-9.98.06-14.97,0-.83,0-1.66,0-2.49-.02-.47,0-.94.06-1.4.15-1.2.56-2.34,1.2-3.29.06-.09.12-.17.18-.26.25-.33.54-.64.86-.91.16-.13.32-.26.5-.37.87-.57,1.93-.89,3.17-.85,1.94,0,3.9,0,9.57,0,4.7,0,11.95,0,23.85,0,0,0,0,0,0,0h0c-.96-1.5-1.93-2.98-3.01-4.39-.04-.05-.08-.11-.12-.16-1.67-2.12-3.46-4.14-5.34-6.07-.21-.21-.42-.42-.63-.63-.48-.47-.96-.94-1.44-1.4-.51-.48-1.03-.95-1.56-1.41-.02-.02-.04-.03-.06-.05-1.51-1.3-3.14-2.47-4.76-3.63-.98-.7-1.98-1.36-3-1.99-.36-.23-.72-.45-1.08-.67-.48-.29-.97-.57-1.45-.85,0,0,0,0,0,0-1.66-.95-3.35-1.83-5.09-2.63-.51-.23-1.02-.43-1.53-.65-.05-.02-.11-.04-.16-.07-.47-.2-.94-.4-1.41-.59-1.08-.45-2.17-.87-3.28-1.24,0,0,0,0,0,0,0,0,0,0,0,0-1.03-.35-2.06-.67-3.09-.96-.08-.02-.17-.05-.25-.08-.02,0-.04-.01-.07-.02-1.09-.31-2.18-.59-3.3-.83,0,0,0,0-.01,0-.01,0-.03,0-.04,0-.44-.09-.89-.18-1.33-.26-.74-.14-1.49-.28-2.24-.4-.06,0-.12-.02-.18-.03,0,0,0,0,0,0-2.24-.35-4.47-.51-6.69-.61-.08,0-.16,0-.24-.01-.67-.03-1.33-.07-2-.08-2.42-.03-4.84.04-7.21.29Z"/>
        <path class="cls-1" d="M185.11,65.9c-2.64-1.48-5.38-2.73-8.2-3.81-6.5-2.5-13.39-4.05-20.25-5.16-.37-.12-.71-.17-1.03-.21-1.2-.15-2.13,0-3.04-1.36-.85-1.57-3.21-4.15-5.21-6.35-.36-.39-.7-.77-1.02-1.13h0v16.82h0c.21.09.43.16.66.22,3.68.32,7.11.18,14.43,1.7,19.69,4.44,35.88,16.17,46.56,31.63,2.32,3.36,4.28,6.94,6.05,10.62h3.19c2.03,0,4.16,0,6.37,0,0,0,0,0,0,0,0,0,0,0,0,0-7.37-17.96-20.46-33.6-38.51-42.97Z"/>
        <path class="cls-1" d="M93.86,183.46s-.08-.1-.12-.15c.04.05.08.1.12.15Z"/>
        <path class="cls-1" d="M203.74,204.85c1.01-.96,1.99-1.94,2.96-2.94,3.39-3.51,6.49-7.26,9.2-11.35,13.85-19.86,17.4-44.29,12.41-66.84-.28-1.29-.59-2.57-.93-3.84-3.15,0-6.13,0-8.9,0,.08.27.16.54.24.81.1.33.19.66.29.99.11.38.21.75.31,1.13.22.83.44,1.67.63,2.51.07.31.15.62.21.94,1.79,8.04,2.34,16.42,1.45,24.86-.32,3.05-.82,6.1-1.53,9.14-2.59,10.6-7.17,20.75-13.8,29.45-2.59,3.38-5.39,6.62-8.51,9.54h0s5.77,5.77,5.77,5.77h0c.05-.05.11-.1.17-.16Z"/>
        <path class="cls-1" d="M135.58,55.19s-.07.07-.11.11c-.04.04-.09.08-.13.12-.75.67-1.68.96-3.87,1.39-1.38.27-3.27.6-5.94,1.12-.53.11-1.07.23-1.6.35-10.98,2.49-21.46,7.25-30.12,14.51.81.66,1.58,1.28,2.34,1.89,1.11.9,2.19,1.77,3.23,2.66.23.19.43.31.63.36.31.09.61.02.93-.15.1-.06.21-.12.32-.19,1.7-1.15,3.45-2.22,5.24-3.19.45-.24.9-.48,1.35-.72,4.98-2.58,10.28-4.55,15.69-6.08,1.15-.3,2.31-.58,3.48-.84,4.66-1.03,9.42-1.69,14.2-1.44.54.01.97-.42.97-.95-.02-1.24-.02-2.49-.02-3.73,0-4.44.06-8.87-.05-13.31h0c-4.5,4.84-5.46,6.95-6.55,8.08Z"/>
        <path class="cls-1" d="M89.03,76.23c-2.85,2.88-5.74,5.72-8.45,8.73-8.21,9.38-14.46,20.52-18.28,32.42-.35,1.08-.67,2.17-.98,3.26,0,.01,0,.02,0,.03-1.22,4.38-2.11,8.84-2.65,13.35-3.4,29.02,9.44,58.85,32.43,76.81,11.46,9.34,25.29,16.06,39.92,18.5,1.08.18,2.17.34,3.27.47.07,0,.13.02.19.04.41.1.55.36.63.77.03.14.07.29.11.43.12.51.26,1.02.42,1.53,1.43,4.55,4.21,8.89,6.85,12.61h0s0,0,0,0c.16-7.89-.03-15.8.06-23.7,0-.07,0-.13,0-.18,0-.02,0-.04,0-.05,0-.05-.02-.09-.03-.14,0-.02,0-.04-.01-.06-.1-.36-.37-.49-.88-.46-9.99.18-19.83-2.51-28.99-6.33-8.63-3.73-16.51-9.13-23.23-15.72-6.97-6.83-12.68-14.95-16.69-23.83-1.27-2.82-2.38-5.72-3.29-8.67-5.42-17.75-4.27-36.72,2.59-53.38,5.02-12.2,13.1-23.16,23.9-31.5,0,0,0,0,0,0,0,0,0,0,0,0-1.55-.93-5.68-5.84-6.88-4.93Z"/>
        <path class="cls-1" d="M94.35,184.02c-.06-.06-.12-.13-.18-.19.06.06.12.13.18.19Z"/>
        <path class="cls-1" d="M94.1,183.74c-.05-.06-.1-.11-.15-.17.05.06.1.11.15.17Z"/>
        <path class="cls-1" d="M121.69,203.6c-1.51-.57-2.99-1.19-4.45-1.86,1.46.68,2.94,1.3,4.45,1.86Z"/>
        <path class="cls-1" d="M140.99,207.62c-1.1-.07-2.19-.16-3.27-.28,1.09.12,2.19.21,3.27.28Z"/>
        <path class="cls-1" d="M208.39,139.8c-.03-.46-.06-.91-.1-1.37-.04-.46-.07-.91-.11-1.36.04.45.07.91.11,1.36.04.46.07.91.1,1.37Z"/>
        <path class="cls-1" d="M93.59,181.08c2.19-.52,3.19-3.36,5.57-3.04,7.83.03,15.66,0,23.49.03,1.28,0,2.54-.46,3.62-1.21-1.08.76-2.34,1.22-3.62,1.21-7.83-.03-15.66,0-23.49-.03-2.38-.32-3.38,2.52-5.57,3.04-.36.12-.55.3-.61.53.06-.23.25-.41.61-.53Z"/>
        <path class="cls-1" d="M208.49,145.98c0,.13,0,.26-.02.39,0-.13,0-.26.02-.39.05-1.2.04-2.41,0-3.63.03,1.21.04,2.43,0,3.63Z"/>
        <path class="cls-1" d="M112.99,199.52c.33.18.65.35.98.53.02.01.05.03.07.04-.02-.01-.05-.03-.07-.04-.33-.18-.65-.35-.98-.53Z"/>
        <path class="cls-1" d="M94.4,184.07c.09.09.18.19.27.28-.02-.02-.03-.03-.05-.05-.07-.08-.15-.15-.22-.23Z"/>
        <path class="cls-1" d="M94.72,184.4c.34.41.74.78,1.09,1.18.11.12.22.24.33.36-.11-.12-.22-.24-.33-.36-.29-.34-.66-.74-1.09-1.18Z"/>
        <path class="cls-1" d="M108.35,196.67s.01,0,.02.01c1.03.7,2.08,1.37,3.16,2.01-1.07-.64-2.12-1.31-3.16-2.01,0,0-.01,0-.02-.01Z"/>
        <path class="cls-1" d="M825.14,138.08c1.95-10,0-20.45-5.6-29.16-.18-.28-.37-.56-.55-.84-7.42-10.92-19.74-17.44-32.94-17.44h-382s0,0,0,0c-1.77-4.13-4.49-7.75-7.87-10.59-4.94-4.16-11.3-6.66-18.17-6.66h-112.71c-.05-.08-.12-.16-.17-.24h-.15c-2.17-3.25-4.47-6.39-6.87-9.41-1.27-1.6-2.57-3.16-3.9-4.69-5.3-6.09-11.09-11.65-17.29-16.64,0,0-.01,0-.02-.01,0,0,0,0-.01,0-9.62-7.68-20.21-13.99-31.52-18.78-.87-.37-1.74-.73-2.62-1.08-2.47-.98-4.97-1.9-7.5-2.74-1.52-.5-3.05-.98-4.59-1.43-.51-.15-1.03-.3-1.54-.44-11.85-3.31-24.28-5.05-37.01-5.05-6.97,0-13.81.53-20.5,1.54-.09.01-.18.03-.27.04-19.61,3.01-37.85,10.23-53.77,20.69-.05.03-.09.06-.14.09-1.24.82-2.46,1.65-3.67,2.51-.23.16-.46.33-.69.49-1.14.81-2.26,1.64-3.37,2.49-.96.73-1.91,1.47-2.85,2.23-1.44,1.16-2.85,2.35-4.24,3.56-2.3,2.01-4.54,4.1-6.7,6.26-.45.45-.9.91-1.35,1.37-.75.77-1.48,1.54-2.21,2.33-1.45,1.57-2.87,3.17-4.25,4.8-.35.41-.69.82-1.03,1.23-19.4,23.53-31.07,53.65-31.07,86.46h0c0,75.05,61.05,136.09,136.09,136.09,6.24,0,12.48-.43,18.64-1.27l3.5,7.98c2.3,5.23,6.3,9.36,11.19,11.85.26.13.52.26.78.38.52.24,1.06.47,1.6.68,2.71,1.03,5.63,1.59,8.63,1.59h21.38l4.46,14.48c.54,1.77,1.15,3.5,1.82,5.19.34.85.69,1.68,1.06,2.51,2.21,4.96,4.97,9.56,8.2,13.75.54.7,1.09,1.38,1.65,2.06.56.67,1.14,1.33,1.73,1.98.29.32.59.65.89.96,12.32,13.05,29.68,20.88,48.63,20.92l317.59.73c41.09,0,77.69-26.36,91.01-64.82,1.94-.47,3.85-1.01,5.74-1.63,15.12-4.9,28.56-14.27,38.39-26.75,2.05-2.6,3.94-5.33,5.66-8.19h0c24.07-9.44,37.28-26.08,47.73-47.19,0,0,0,0,0,0-.04,0-.07.01-.1.01-2.31,0-4.52-.35-6.67-.87-9.94,19.15-22.63,34.02-45,42.03-10.49,19.02-29.33,32.51-50.69,36.34-11.02,37.73-45.93,63.97-85.51,63.97h-.4s-318.28-.73-318.28-.73c-21.07-.05-39.92-10.94-50.53-28.21-.28-.45-.55-.91-.82-1.37-.07-.12-.14-.25-.21-.37-2.14-3.76-3.9-7.81-5.21-12.09l-3.75-12.19-2.42-7.87h-27.25c-6.56,0-12.49-3.88-15.13-9.88l-5.94-13.55h0c-.43.08-.86.15-1.29.22-7.3,1.27-14.75,1.92-22.16,1.92h0c-35.52,0-67.73-14.45-91.05-37.78-1.09-1.09-2.17-2.21-3.22-3.34-.33-.36-.67-.72-1-1.08-20.84-22.9-33.56-53.31-33.56-86.63,0-27.43,8.62-52.89,23.29-73.81.98-1.39,1.98-2.77,3.01-4.12,23.55-30.91,60.75-50.9,102.52-50.9,36.24,0,69.84,14.81,93.92,40.57,5.73,6.13,10.92,12.87,15.48,20.18h117.43c4.99,0,9.62,1.82,13.22,4.85,3.7,3.11,6.31,7.49,7.11,12.48h389.38c10.66,0,20.61,5.26,26.6,14.08,1.12,1.65,2.08,3.39,2.87,5.19.11.26.23.52.33.79,1.5,3.7,2.3,7.63,2.36,11.58,0,.28,0,.57,0,.85,0,0,0,0,0,.01,0,.02,0,.05,0,.07-.05,3.86-.79,7.73-2.26,11.42l-5.35,13.52-4.86,12.29c.64.4,1.27.82,1.88,1.26,1.19.86,2.32,1.79,3.35,2.83l10.61-26.83c.91-2.3,1.6-4.66,2.06-7.04Z"/>
        <path class="cls-1" d="M124.7,204.61s.02,0,.03,0c.83.26,1.66.51,2.5.74-.84-.23-1.68-.47-2.5-.74,0,0-.02,0-.03,0Z"/>
        <path class="cls-1" d="M764.41,186.93h0c.44-2.49,1.21-4.87,2.25-7.1,4.52-9.64,14.28-16.32,25.64-16.32,4.1,0,7.94.95,11.45,2.54h0s10.21-25.8,10.21-25.8c3.42-8.64,2.38-18-2.84-25.68-5.22-7.68-13.55-12.09-22.84-12.09h-394.38l-.19-2.54c-.62-8.31-7.64-14.82-15.97-14.82h-120.25l-.8-1.31c-22.84-37.3-62.55-59.57-106.23-59.57-68.64,0-124.48,55.84-124.48,124.48s55.84,124.48,124.48,124.48c8.07,0,16.18-.79,24.09-2.34l2.16-.42.88,2.01,6.55,14.94c1.9,4.34,6.19,7.14,10.93,7.14h30.72l.6,1.94,6.59,21.43c7.13,23.2,28.23,38.82,52.49,38.87l319.33.73c37.99,0,71.45-25.44,81.55-61.87l.47-1.69,1.73-.28c20.73-3.35,39.04-16.4,49-34.89l.51-.94,1.01-.35c21.26-7.42,33.25-20.99,42.84-39.3,0,0,0,0,0,0-9.01-3.56-15.75-11.52-17.48-21.3H219.73c-8.66,11.92-19.96,21.96-33,28.95-7.47,4.08-15.38,7.06-23.63,9.1-3.02,1-7.65,3.94-8.36,4.85-3.04,3.38-6.08,6.75-9.12,10.14-.53.42-1.15,2.09-1.93,1.1-1-1.15-2.01-2.3-3.03-3.44-2.26-2.53-4.53-5.05-6.68-7.66-.03-.03-.14-.1-.35-.2-4.12-2.05-43.11-17.62-57.56-33.49-19.53-20.32-27.31-46.7-24.72-72.3,2.43-24.05,14.02-47.39,33.62-64.36,7.12-5.83,14.97-10.82,23.43-14.41,3.31-1.4,6.71-2.6,10.21-3.54.21-.07.43-.14.64-.2,4.8-1.48,9.96-2.05,14.62-3.64,1.17-1.34,2.42-2.6,3.67-3.86.86-.86,1.72-1.71,2.57-2.58,1.22-1.25,2.4-2.53,3.48-3.91.96-1.21,1.69,1.29,2.46,1.71,2.79,2.91,5.53,5.87,8.44,8.65.62.59,1.67.79,2.62.98.11.02.23.05.34.07.95.18,1.89.36,2.84.56,5.27,1.08,10.5,2.39,15.62,4.07.31.1.63.2.94.31,25.68,9.05,45.19,30.12,54.75,55.1h0c.49,0,.99,0,1.49,0,3.51,0,7.22,0,11.13,0,13.41,0,29.23,0,47.95,0,1.57-2.57,4.37-4.31,7.61-4.31,4.16,0,7.65,2.84,8.65,6.69.01.05.02.09.03.14.06.24.11.49.15.75.07.44.1.89.1,1.35,0,3.38-1.87,6.31-4.64,7.83-.14.08-.28.15-.42.22-.16.08-.32.15-.48.21-1.05.43-2.19.67-3.39.67-.91,0-1.78-.14-2.61-.39-1.37-.42-2.61-1.17-3.61-2.15-24.16,0-43.3,0-58.47,0,0,0,0,0,0,0h0c1.67,6.57,2.7,13.3,2.97,20.08.04.93.06,1.86.07,2.79-.07,6.77-.94,13.46-2.51,19.97-.01.04-.02.09-.03.13-.16.66-.33,1.33-.51,1.99-.52,1.96-1.11,3.9-1.76,5.82-.14.41-.28.82-.42,1.22-1.84,5.2-4.13,10.23-6.82,15.05h538.33s0,0,0,0Z"/>
        <path class="cls-1" d="M198.8,209.28h0s-5.79-5.79-5.79-5.79h0c-.08.03-.16.07-.22.14-1.46,1.16-2.94,2.28-4.47,3.35-3.71,2.61-7.63,4.91-11.75,6.78-1.19.54-2.39,1.05-3.61,1.51-1.36.5-2.73.99-4.11,1.44-7.25,2.4-14.87,4.08-22.48,3.89h0v23.94h0c3.38-4.64,6.67-9.17,6.82-15.01,16.84-1.43,32.91-9.28,45.62-20.26Z"/>
        <path class="cls-1" d="M97.34,187.26c.16.17.32.34.48.51,2.25,2.33,4.67,4.5,7.23,6.49-2.56-1.99-4.98-4.16-7.23-6.49-.16-.17-.32-.34-.48-.51Z"/>
        <path class="cls-1" d="M174.61,119.91c1.74-.02,3.51-.03,29.43-.03,0,0,0,0,0,0-25.92,0-27.69.01-29.43.03-2.01.02-2.37.77-2.43,1.98.05-1.22.42-1.96,2.43-1.98Z"/>
        <path class="cls-1" d="M129.33,168.02c0,1.13,0,2.27.02,3.4,0,1.47-.62,2.92-1.61,4.09.99-1.17,1.61-2.63,1.61-4.09-.01-1.13-.02-2.26-.02-3.4Z"/>
        <path class="cls-1" d="M160.35,177.54c.19.26.61.49.93.49,3.66-.16,9.11,1.33,10.59-3.31.75-15.22.24-30.55.26-45.82-.02,15.28.49,30.6-.26,45.82-1.48,4.64-6.93,3.15-10.59,3.31-.33,0-.75-.23-.93-.49-1.69-2.37-3.34-4.76-4.98-7.15,0-.01-.02-.03-.03-.04,0,.01.02.03.03.04,1.64,2.4,3.3,4.79,4.98,7.15Z"/>
        <rect class="cls-1" x="206.72" y="128.28" width=".06" height="0"/>
        <path class="cls-1" d="M207.92,134.61s0-.07-.01-.1c-.02-.16-.05-.32-.08-.47.03.16.06.31.08.47,0,.03,0,.07.01.1Z"/>
        <path class="cls-1" d="M207.72,133.45c-.02-.1-.04-.19-.05-.29-.13-.79-.26-1.57-.41-2.36.15.79.28,1.57.41,2.36.02.1.04.19.05.29Z"/>
        <path d="M532.27,291.95c-.59-.49-1.53-.74-2.84-.74h-7.03c-.48,0-.9.15-1.24.44-.35.29-.52.64-.52,1.05v6.75c0,.99.55,1.37,1.65,1.14.83-.23,1.86-.55,3.1-.96,1.24-.41,2.43-.91,3.57-1.49,1.14-.58,2.12-1.26,2.95-2.01.83-.76,1.24-1.61,1.24-2.54,0-.58-.29-1.12-.88-1.62Z"/>
        <path d="M137.84,79.44c-.06,0-.12.01-.19.02-.28.03-.55.07-.83.1-22.21,2.56-40.97,16.44-50.37,35.72-.63,1.29-1.21,2.6-1.75,3.93-.1.25-.21.51-.31.76-.17.42-.34.84-.49,1.27-.03.07-.05.14-.08.21-.9,2.44-1.65,4.95-2.24,7.52-.85,3.65-1.37,7.43-1.55,11.31-.05,1.03-.07,2.07-.06,3.11,0,1.95.11,3.92.3,5.91.11,1.16.25,2.32.43,3.49.53,3.51,1.34,7.07,2.46,10.67.21.67.42,1.34.65,2.01,0,0,.02-.01.03-.02,3.92-3.37,10.35-3.51,13.64.88.16.25.56.42,1.14.52,1.61.28,4.58.05,7.35-.26.22-.02.44-.05.66-.07.14-.02.29-.03.43-.05,2.13-.25,4.01-.52,4.82-.56.69-.08,1.38-.18,2.06-.29.26-.04.52-.08.78-.12.59-.1.98-.17,1.24-.27.31-.12.43-.28.48-.62.03-.21.03-.47.03-.84,0-4.18,0-8.36,0-12.54,0-12.58.01-25.16-.05-37.73.45-4.87,3.83-4.7,9.74-4.67,1.1.05,1.79.13,2.27.65.06.06.11.13.16.2,1.29,1.93,2.62,3.82,3.93,5.74,3.49,5.19,7.07,10.34,10.62,15.5,5.64,8.19,11.23,16.42,16.33,24.95.04-.01.09-.03.13-.04h0c-.03-.46-.06-.92-.09-1.38-.44-7-.53-14.02-.52-21.04,0-3.74.04-7.49.05-11.23,0-1.25,0-2.5,0-3.74,0-.83,0-1.66,0-2.49-.02-.47,0-.94.06-1.4.15-1.2.56-2.34,1.2-3.29.06-.09.12-.17.18-.26.25-.33.54-.64.86-.91.16-.13.32-.26.5-.37.87-.57,1.93-.89,3.17-.85,1.94,0,3.9,0,9.57,0,.15,0,.3,0,.45,0,4.71,0,11.87,0,23.4,0,0,0,0,0,0,0-.96-1.5-1.93-2.98-3.01-4.39-.04-.05-.08-.11-.12-.16-1.67-2.12-3.46-4.14-5.34-6.07-.21-.21-.42-.42-.63-.63-.48-.47-.96-.94-1.44-1.4-.51-.48-1.03-.95-1.56-1.41-.02-.02-.04-.03-.06-.05-1.51-1.3-3.14-2.47-4.76-3.63-1-.69-2-1.36-3-1.99-.36-.23-.72-.45-1.08-.67-.37-.22-.74-.44-1.12-.65-.11-.06-.22-.13-.34-.2,0,0,0,0,0,0-1.69-.95-3.39-1.84-5.09-2.63-.5-.23-1.02-.43-1.53-.65-.05-.02-.11-.04-.16-.07-.47-.2-.94-.4-1.41-.59-1.09-.45-2.19-.87-3.28-1.24,0,0,0,0,0,0,0,0,0,0,0,0-1.02-.34-2.05-.66-3.09-.96-.08-.02-.17-.05-.25-.08-.02,0-.04-.01-.07-.02-1.09-.31-2.18-.59-3.3-.83,0,0,0,0-.01,0-.01,0-.03,0-.04,0-.44-.09-.89-.18-1.33-.26-.74-.14-1.49-.28-2.24-.4-.06,0-.12-.02-.18-.03,0,0,0,0,0,0-2.24-.35-4.47-.51-6.69-.61-.08,0-.16,0-.24-.01-.66-.03-1.33-.07-2-.08-2.42-.03-4.84.04-7.21.29Z"/>
        <path d="M323.29,140.16c-6.4,0-11.7,5.21-11.7,14.45s4.66,14.63,11.52,14.63c6.04,0,11.7-4.39,11.7-14.72,0-7.22-3.75-14.35-11.52-14.35Z"/>
        <path d="M481.33,310.74c.62.12,1.24.25,1.86.39.62.15,1.21.28,1.76.39,1.1.29,1.52-.03,1.24-.96l-2.79-8.67c-.35-.88-.69-.88-1.03,0l-2.27,7.18c-.14.41-.09.78.16,1.1.24.32.6.51,1.09.57Z"/>
        <path d="M575.36,234.86c.83-.23,1.86-.55,3.1-.96,1.24-.41,2.43-.91,3.57-1.49,1.14-.58,2.12-1.26,2.95-2.01s1.24-1.61,1.24-2.54c0-.58-.29-1.12-.88-1.62-.59-.49-1.53-.74-2.84-.74h-7.03c-.48,0-.9.15-1.24.44-.35.29-.52.64-.52,1.05v6.75c0,.99.55,1.37,1.65,1.14Z"/>
        <path d="M764.41,186.93c.44-2.49,1.21-4.87,2.25-7.1,4.52-9.64,14.28-16.32,25.64-16.32,4.1,0,7.94.95,11.45,2.54h0s10.21-25.8,10.21-25.8c3.42-8.64,2.38-18-2.84-25.68-5.22-7.68-13.55-12.09-22.84-12.09h-394.38l-.19-2.54c-.62-8.31-7.64-14.82-15.97-14.82h-120.25l-.8-1.31c-22.84-37.3-62.55-59.57-106.23-59.57-68.64,0-124.48,55.84-124.48,124.48s55.84,124.48,124.48,124.48c8.07,0,16.18-.79,24.09-2.34l2.16-.42.88,2.01,6.55,14.94c1.9,4.34,6.19,7.14,10.93,7.14h30.72l.6,1.94,6.59,21.43c7.13,23.2,28.23,38.82,52.49,38.87l319.33.73c37.99,0,71.45-25.44,81.55-61.87l.47-1.69,1.73-.28c20.73-3.35,39.04-16.4,49-34.89l.51-.94,1.01-.35c21.26-7.42,33.25-20.99,42.84-39.3-9.01-3.56-15.75-11.52-17.48-21.3H219.73c-8.66,11.92-19.96,21.96-33,28.95-7.47,4.08-15.38,7.06-23.63,9.1-3.02,1-7.65,3.94-8.36,4.85-3.04,3.38-6.09,6.75-9.12,10.14-.53.42-1.15,2.09-1.93,1.1-1-1.15-2.01-2.3-3.03-3.44-2.26-2.53-4.53-5.05-6.68-7.66,0,0-.02-.02-.04-.03-.05-.04-.16-.1-.31-.17-4.12-2.05-43.11-17.62-57.56-33.49-19.53-20.32-27.31-46.7-24.72-72.3.08-.75.16-1.5.25-2.25,2.91-23.25,14.38-45.67,33.36-62.11,6.67-5.46,13.99-10.19,21.85-13.72.52-.24,1.05-.47,1.58-.69,3.31-1.4,6.71-2.6,10.21-3.54.21-.07.43-.14.64-.2.3-.09.6-.18.9-.27,4.54-1.28,9.35-1.88,13.72-3.37,1.17-1.34,2.42-2.6,3.67-3.86.86-.86,1.72-1.71,2.57-2.58,1.22-1.25,2.4-2.53,3.48-3.91.96-1.21,1.69,1.29,2.46,1.71,2.79,2.91,5.53,5.87,8.44,8.65.62.59,1.67.79,2.62.98.11.02.23.05.34.07.95.18,1.89.36,2.84.56,5.27,1.08,10.5,2.39,15.62,4.07.31.1.63.2.94.31,25.68,9.05,45.19,30.12,54.75,55.1h0c.49,0,.99,0,1.49,0,3.51,0,7.22,0,11.13,0,13.41,0,29.23,0,47.95,0,1.57-2.57,4.37-4.31,7.61-4.31,4.16,0,7.65,2.84,8.65,6.69.01.05.02.09.03.14.06.24.11.49.15.75.07.44.1.89.1,1.35,0,3.38-1.87,6.31-4.64,7.83-.14.08-.28.15-.42.22-.16.08-.32.15-.48.21-1.05.43-2.19.67-3.39.67-.91,0-1.78-.14-2.61-.39-1.37-.42-2.61-1.17-3.61-2.15-24.16,0-43.3,0-58.47,0h0c1.42,5.59,2.38,11.29,2.8,17.05.07,1.01.14,2.02.18,3.04.04.93.06,1.86.07,2.79-.07,6.77-.94,13.46-2.51,19.97-.01.04-.02.09-.03.13-.16.66-.33,1.33-.51,1.99-.52,1.96-1.11,3.9-1.76,5.82-.14.41-.28.82-.42,1.22-.41,1.16-.84,2.3-1.3,3.44-.4,1.02-.83,2.02-1.27,3.03-1.28,2.93-2.7,5.79-4.26,8.58h538.33s0,0,0,0ZM776.64,118.66l5.21,1.12c.84.18,1.69-.2,2.12-.94l2.68-4.61c.96-1.65,3.47-1.11,3.67.79l.55,5.3c.09.85.71,1.55,1.55,1.73l5.21,1.12c1.87.4,2.13,2.96.38,3.73l-4.87,2.16c-.78.35-1.25,1.16-1.16,2.01l.55,5.3c.2,1.9-2.16,2.94-3.43,1.52l-3.56-3.97c-.57-.64-1.49-.83-2.27-.49l-4.88,2.16c-1.75.77-3.46-1.14-2.5-2.79l2.68-4.61c.43-.74.33-1.67-.24-2.31l-3.56-3.97c-1.28-1.42.02-3.65,1.88-3.24ZM731.92,224.97l2.85-1.03c1.01-.36,1.27-1.66.49-2.39l-2.23-2.06c-1.14-1.06,0-2.92,1.46-2.39l2.88,1.04c1,.36,2.04-.46,1.9-1.52l-.38-3.02c-.2-1.54,1.86-2.24,2.65-.9l1.57,2.69c.54.92,1.85.95,2.43.06l1.69-2.6c.85-1.3,2.87-.51,2.6,1.02l-.53,3.06c-.18,1.05.8,1.92,1.82,1.61l2.98-.9c1.49-.45,2.52,1.47,1.33,2.46l-2.34,1.95c-.82.68-.63,1.99.36,2.41l2.82,1.19c1.43.61,1,2.74-.56,2.74h-3.04c-1.07,0-1.76,1.12-1.27,2.08l1.39,2.69c.71,1.38-.99,2.75-2.18,1.75l-2.38-1.98c-.82-.68-2.07-.26-2.3.78l-.69,3c-.35,1.51-2.52,1.46-2.8-.06l-.56-3.07c-.19-1.04-1.41-1.52-2.26-.89l-2.5,1.87c-1.24.93-2.87-.51-2.09-1.86l1.54-2.66c.53-.92-.1-2.08-1.16-2.14l-3.09-.17c-1.55-.08-1.87-2.24-.41-2.77ZM268.23,309.99l-.89.71c-3.2,2.56-4.23,6.97-2.51,10.68l.48,1.03c.57,1.23-.83,2.43-1.96,1.69l-.95-.62c-3.42-2.25-7.93-1.87-10.94.91l-.83.77c-.99.92-2.56-.04-2.21-1.34l.3-1.1c1.08-3.95-.67-8.12-4.25-10.12l-.99-.55c-1.18-.66-.76-2.45.59-2.51l1.13-.05c4.09-.19,7.52-3.15,8.31-7.16l.22-1.11c.26-1.32,2.09-1.48,2.57-.21l.4,1.06c1.45,3.83,5.32,6.18,9.38,5.69l1.13-.14c1.34-.16,2.05,1.54,1,2.38ZM275.01,290.77c-.31-.29-.47-.64-.47-1.05v-5.96c0-.41.15-.76.47-1.05.31-.29.74-.44,1.29-.44h33.6c.48,0,.9.15,1.24.44.34.29.52.64.52,1.05v5.96c0,.41-.17.76-.52,1.05-.35.29-.76.44-1.24.44h-8.89c-.55,0-.98.15-1.29.44-.31.29-.47.64-.47,1.05v34.25c0,.41-.17.76-.52,1.05-.35.29-.76.44-1.24.44h-8.79c-.55,0-.98-.14-1.29-.44-.31-.29-.47-.64-.47-1.05v-34.25c0-.41-.17-.76-.52-1.05-.35-.29-.76-.44-1.24-.44h-8.89c-.55,0-.98-.14-1.29-.44ZM628.6,342.86h-343.44c-.95,0-1.71-.87-1.71-1.94s.77-1.94,1.71-1.94h343.44c.94,0,1.71.87,1.71,1.94s-.77,1.94-1.71,1.94ZM540.28,304.87c1.65,2.22,3.19,5.12,4.6,8.72,1.41,3.59,2.19,8.04,2.33,13.36,0,.41-.17.76-.52,1.05-.35.29-.76.44-1.24.44h-8.79c-.48,0-.9-.14-1.24-.44-.35-.29-.52-.64-.52-1.05-.14-4.49-.79-8.1-1.96-10.82-1.17-2.72-2.34-4.8-3.51-6.26-.28-.35-.67-.58-1.19-.7-.52-.12-1.02-.12-1.5,0-.9.29-1.71.53-2.43.7-.72.18-1.36.32-1.91.44-.55.12-.98.34-1.29.66-.31.32-.47.72-.47,1.18v14.8c0,.41-.17.76-.52,1.05-.35.29-.76.44-1.24.44h-8.79c-.48,0-.9-.14-1.24-.44-.35-.29-.52-.64-.52-1.05v-43.18c0-.41.17-.76.52-1.05.34-.29.76-.44,1.24-.44h19.33c2.27,0,4.38.28,6.31.83,1.93.56,3.62,1.34,5.07,2.36,1.45,1.02,2.58,2.24,3.41,3.64.83,1.4,1.24,2.98,1.24,4.73s-.47,3.43-1.4,4.86c-.93,1.43-2.08,2.73-3.46,3.9-.83.7-.93,1.46-.31,2.28ZM561.49,291.65c-.35-.29-.76-.44-1.24-.44h-8.89c-.55,0-.98-.14-1.29-.44-.31-.29-.47-.64-.47-1.05v-5.96c0-.41.15-.76.47-1.05.31-.29.74-.44,1.29-.44h33.6c.48,0,.9.15,1.24.44.34.29.52.64.52,1.05v5.96c0,.41-.17.76-.52,1.05-.35.29-.76.44-1.24.44h-8.89c-.55,0-.98.15-1.29.44-.31.29-.47.64-.47,1.05v34.25c0,.41-.17.76-.52,1.05-.35.29-.76.44-1.24.44h-8.79c-.55,0-.98-.14-1.29-.44-.31-.29-.47-.64-.47-1.05v-34.25c0-.41-.17-.76-.52-1.05ZM698.4,216.75l.59-.49c.43-.35.54-.97.25-1.45l-.39-.66c-.33-.56.04-1.26.69-1.3l.76-.05c.56-.03,1-.47,1.05-1.02l.07-.76c.06-.64.78-1,1.32-.65l.65.41c.47.3,1.09.21,1.45-.21l.51-.58c.43-.49,1.21-.35,1.45.25l.28.71c.21.52.76.81,1.3.69l.75-.17c.63-.14,1.19.43,1.03,1.06l-.19.74c-.14.54.14,1.1.65,1.32l.7.3c.59.26.71,1.05.21,1.46l-.59.49c-.43.35-.54.97-.25,1.45l.39.66c.33.55-.04,1.26-.69,1.3l-.76.05c-.56.04-1,.47-1.05,1.02l-.07.76c-.06.64-.78,1-1.32.65l-.65-.41c-.47-.3-1.09-.21-1.45.21l-.51.58c-.43.48-1.21.35-1.45-.25l-.28-.71c-.2-.52-.76-.81-1.3-.69l-.75.17c-.63.14-1.19-.43-1.03-1.06l.19-.74c.14-.54-.14-1.1-.65-1.32l-.7-.3c-.59-.26-.71-1.05-.21-1.46ZM677.76,248.74l8.96,1.58c2.91.51,5.71-1.38,6.32-4.27l1.87-8.9c.2-.97,1.56-1.07,1.9-.14l3.11,8.55c1.01,2.78,4.05,4.26,6.86,3.33l8.65-2.83c.95-.31,1.71.81,1.07,1.58l-5.85,6.97c-1.9,2.27-1.66,5.63.54,7.61l6.78,6.07c.74.66.15,1.88-.83,1.71l-8.96-1.58c-2.91-.51-5.71,1.38-6.32,4.27l-1.87,8.9c-.2.97-1.56,1.07-1.9.14l-3.11-8.55c-1.01-2.78-4.05-4.26-6.86-3.33l-8.65,2.83c-.95.31-1.71-.81-1.07-1.58l5.85-6.97c1.9-2.27,1.66-5.63-.54-7.61l-6.78-6.07c-.74-.66-.15-1.88.83-1.71ZM669.94,307.44l-8.76,6.9c-.21.17-.4.36-.57.57l-6.9,8.76c-.91,1.15-2.75.66-2.95-.79l-1.6-11.03c-.04-.27-.11-.53-.21-.78l-4.13-10.35c-.54-1.36.8-2.71,2.16-2.16l10.35,4.13c.25.1.51.17.78.21l11.03,1.6c1.45.21,1.94,2.05.79,2.95ZM622.84,218.04c0-.41.15-.76.47-1.05.31-.29.74-.44,1.29-.44h33.6c.48,0,.9.15,1.24.44.34.29.52.64.52,1.05v5.96c0,.41-.17.76-.52,1.05-.35.29-.76.44-1.24.44h-8.89c-.55,0-.98.15-1.29.44-.31.29-.47.64-.47,1.05v34.25c0,.41-.17.76-.52,1.05-.35.29-.76.44-1.24.44h-8.79c-.55,0-.98-.14-1.29-.44-.31-.29-.47-.64-.47-1.05v-34.25c0-.41-.17-.76-.52-1.05-.35-.29-.76-.44-1.24-.44h-8.89c-.55,0-.98-.14-1.29-.44-.31-.29-.47-.64-.47-1.05v-5.96ZM606.59,218.04c0-.41.17-.76.52-1.05.34-.29.76-.44,1.24-.44h8.79c.48,0,.89.15,1.24.44.34.29.52.64.52,1.05v43.18c0,.41-.17.76-.52,1.05-.35.29-.76.44-1.24.44h-8.79c-.48,0-.9-.14-1.24-.44-.35-.29-.52-.64-.52-1.05v-43.18ZM603.84,282.71c.31.29.47.64.47,1.05v10.95c0,.41.17.78.52,1.1.34.32.76.51,1.24.57,1.65.23,3.2.54,4.65.92,1.45.38,2.79.8,4.03,1.27.41.17.78.21,1.09.09.31-.12.47-.41.47-.88v-14.02c0-.41.17-.76.52-1.05.34-.29.76-.44,1.24-.44h8.79c.48,0,.89.15,1.24.44.34.29.52.64.52,1.05v43.18c0,.41-.17.76-.52,1.05-.35.29-.76.44-1.24.44h-8.79c-.48,0-.9-.14-1.24-.44-.35-.29-.52-.64-.52-1.05v-13.93c0-.41-.07-.89-.21-1.44-.14-.56-.38-.98-.72-1.27-.76-.82-1.86-1.72-3.31-2.72-1.45-.99-3.45-1.72-6-2.19-.48-.12-.9-.04-1.24.22-.35.26-.52.6-.52,1.01v20.32c0,.41-.16.76-.47,1.05-.31.29-.74.44-1.29.44h-8.79c-.48,0-.9-.14-1.24-.44-.35-.29-.52-.64-.52-1.05v-43.18c0-.41.17-.76.52-1.05.34-.29.76-.44,1.24-.44h8.79c.55,0,.98.15,1.29.44ZM561.4,218.04c0-.41.17-.76.52-1.05.34-.29.76-.44,1.24-.44h19.33c2.27,0,4.38.28,6.31.83,1.93.56,3.62,1.34,5.07,2.36,1.45,1.02,2.58,2.24,3.41,3.64.83,1.4,1.24,2.98,1.24,4.73s-.47,3.43-1.4,4.86c-.93,1.43-2.08,2.73-3.46,3.9-.83.7-.93,1.46-.31,2.28,1.65,2.22,3.19,5.12,4.6,8.72,1.41,3.59,2.19,8.04,2.33,13.36,0,.41-.17.76-.52,1.05-.35.29-.76.44-1.24.44h-8.79c-.48,0-.9-.14-1.24-.44-.35-.29-.52-.64-.52-1.05-.14-4.49-.79-8.1-1.96-10.82-1.17-2.72-2.34-4.8-3.52-6.26-.28-.35-.67-.58-1.19-.7-.52-.12-1.02-.12-1.5,0-.9.29-1.71.53-2.43.7-.72.18-1.36.32-1.91.44-.55.12-.98.34-1.29.66-.31.32-.47.72-.47,1.18v14.8c0,.41-.17.76-.52,1.05-.35.29-.76.44-1.24.44h-8.79c-.48,0-.9-.14-1.24-.44-.35-.29-.52-.64-.52-1.05v-43.18ZM525.21,218.04c0-.41.17-.76.52-1.05.34-.29.76-.44,1.24-.44h25.23c.48,0,.9.15,1.24.44.34.29.52.64.52,1.05v5.96c0,.41-.17.76-.52,1.05-.35.29-.76.44-1.24.44h-12.92c-.48,0-.9.15-1.24.44-.35.29-.52.64-.52,1.05v2.8c0,.93.58,1.31,1.76,1.14,1.31-.29,2.76-.5,4.34-.61,1.59-.12,3.31-.12,5.17,0,.48,0,.88.16,1.19.48.31.32.43.69.36,1.09l-.62,5.96c-.14.93-.76,1.4-1.86,1.4-2.14-.12-3.91-.04-5.32.22-1.41.26-2.57.57-3.46.92-.48.18-.86.48-1.14.92-.28.44-.41.86-.41,1.27v9.72c0,.41.17.76.52,1.05.34.29.76.44,1.24.44h12.92c.48,0,.9.15,1.24.44.34.29.52.64.52,1.05v5.96c0,.41-.17.76-.52,1.05-.35.29-.76.44-1.24.44h-25.23c-.48,0-.9-.14-1.24-.44-.35-.29-.52-.64-.52-1.05v-43.18ZM480.74,218.04c0-.41.17-.76.52-1.05.34-.29.76-.44,1.24-.44h8.79c.55,0,.98.15,1.29.44.31.29.47.64.47,1.05v10.95c0,.41.17.78.52,1.1.34.32.76.51,1.24.57,1.65.23,3.21.54,4.65.92,1.45.38,2.79.8,4.03,1.27.41.17.78.21,1.09.09.31-.12.47-.41.47-.88v-14.02c0-.41.17-.76.52-1.05.34-.29.76-.44,1.24-.44h8.79c.48,0,.89.15,1.24.44.34.29.52.64.52,1.05v43.18c0,.41-.17.76-.52,1.05-.35.29-.76.44-1.24.44h-8.79c-.48,0-.9-.14-1.24-.44-.35-.29-.52-.64-.52-1.05v-13.93c0-.41-.07-.89-.21-1.44-.14-.56-.38-.98-.72-1.27-.76-.82-1.86-1.72-3.31-2.72-1.45-.99-3.45-1.72-6-2.19-.48-.12-.9-.04-1.24.22-.35.26-.52.6-.52,1.01v20.32c0,.41-.16.76-.47,1.05-.31.29-.74.44-1.29.44h-8.79c-.48,0-.9-.14-1.24-.44-.35-.29-.52-.64-.52-1.05v-43.18ZM478.23,282.67c.41-.26.9-.4,1.45-.4h8.27c1.17,0,1.93.47,2.27,1.4l14.06,43.36c.28.93-.17,1.4-1.34,1.4h-9.2c-.48,0-.93-.13-1.34-.39-.41-.26-.69-.6-.83-1.01l-.31-.88c-.14-.41-.38-.86-.72-1.36-.35-.5-.69-.89-1.03-1.18-1.03-.82-2.45-1.62-4.24-2.41-1.79-.79-4.03-1.36-6.72-1.71-.55-.12-1.03-.04-1.45.22-.41.26-.69.6-.83,1.01l-2.07,6.31c-.14.41-.41.75-.83,1.01-.41.26-.86.39-1.34.39h-7.44c-.48,0-.84-.13-1.09-.39-.24-.26-.29-.6-.15-1.01l14.06-43.36c.14-.41.41-.75.83-1.01ZM437.52,218.04c0-.41.17-.76.52-1.05.34-.29.76-.44,1.24-.44h8.79c.48,0,.89.15,1.24.44.34.29.52.64.52,1.05.14,1.99.48,3.81,1.03,5.47.55,1.66,1.26,3.26,2.12,4.77.86,1.52,1.84,2.99,2.95,4.42,1.1,1.43,2.27,2.88,3.51,4.34.14.12.22.22.26.31.03.09.12.19.26.31.34.41.52.15.52-.79v-18.83c0-.41.17-.76.52-1.05.34-.29.76-.44,1.24-.44h8.79c.48,0,.9.15,1.24.44.34.29.52.64.52,1.05v43.18c0,.41-.17.76-.52,1.05-.35.29-.76.44-1.24.44h-8.79c-.48,0-.9-.14-1.24-.44-.35-.29-.52-.64-.52-1.05-.14-1.98-.48-3.82-1.03-5.52-.55-1.69-1.28-3.3-2.17-4.82-.9-1.52-1.9-2.99-3-4.42-1.1-1.43-2.27-2.88-3.52-4.34-.07-.12-.14-.2-.21-.26-.07-.06-.14-.14-.21-.26-.35-.41-.52-.12-.52.88v18.74c0,.41-.17.76-.52,1.05-.35.29-.76.44-1.24.44h-8.79c-.48,0-.9-.14-1.24-.44-.35-.29-.52-.64-.52-1.05v-43.18ZM429.73,283.76c0-.41.17-.76.52-1.05.34-.29.76-.44,1.24-.44h25.23c.48,0,.9.15,1.24.44.34.29.52.64.52,1.05v5.96c0,.41-.17.76-.52,1.05-.35.29-.76.44-1.24.44h-12.92c-.48,0-.9.15-1.24.44-.35.29-.52.64-.52,1.05v2.8c0,.93.58,1.31,1.76,1.14,1.31-.29,2.76-.5,4.34-.61,1.59-.12,3.31-.12,5.17,0,.48,0,.88.16,1.19.48.31.32.43.69.36,1.09l-.62,5.96c-.14.93-.76,1.4-1.86,1.4-2.14-.12-3.91-.04-5.32.22-1.41.26-2.57.57-3.46.92-.48.18-.86.48-1.14.92-.28.44-.41.86-.41,1.27v9.72c0,.41.17.76.52,1.05.34.29.76.44,1.24.44h12.92c.48,0,.9.15,1.24.44.34.29.52.64.52,1.05v5.96c0,.41-.17.76-.52,1.05-.35.29-.76.44-1.24.44h-25.23c-.48,0-.9-.14-1.24-.44-.35-.29-.52-.64-.52-1.05v-43.18ZM415.81,218.04c0-.41.17-.76.52-1.05.34-.29.76-.44,1.24-.44h8.79c.48,0,.89.15,1.24.44.34.29.52.64.52,1.05v43.18c0,.41-.17.76-.52,1.05-.35.29-.76.44-1.24.44h-8.79c-.48,0-.9-.14-1.24-.44-.35-.29-.52-.64-.52-1.05v-43.18ZM391.07,282.71c.34.29.52.64.52,1.05v5.96c0,.41-.17.76-.52,1.05-.35.29-.76.44-1.24.44h-12.92c-.48,0-.9.15-1.24.44-.35.29-.52.64-.52,1.05v2.8c0,.93.58,1.31,1.76,1.14,1.31-.29,2.76-.5,4.34-.61,1.59-.12,3.31-.12,5.17,0,.48,0,.88.16,1.19.48.31.32.43.69.36,1.09l-.62,5.96c-.14.93-.76,1.4-1.86,1.4-2.14-.12-3.91-.04-5.32.22-1.41.26-2.57.57-3.46.92-.48.18-.86.48-1.14.92-.28.44-.41.86-.41,1.27v9.72c0,.41.17.76.52,1.05.34.29.76.44,1.24.44h12.92c.48,0,.89.15,1.24.44.34.29.52.64.52,1.05v5.96c0,.41-.17.76-.52,1.05-.35.29-.76.44-1.24.44h-25.23c-.48,0-.9-.14-1.24-.44-.35-.29-.52-.64-.52-1.05v-43.18c0-.41.17-.76.52-1.05.34-.29.76-.44,1.24-.44h25.23c.48,0,.89.15,1.24.44ZM355.42,218.04c0-.41.17-.76.52-1.05.34-.29.76-.44,1.24-.44h8.79c.48,0,.89.15,1.24.44.34.29.52.64.52,1.05v34.25c0,.41.17.76.52,1.05.34.29.76.44,1.24.44h11.89c.48,0,.89.15,1.24.44.34.29.52.64.52,1.05v5.96c0,.41-.17.76-.52,1.05-.35.29-.76.44-1.24.44h-24.19c-.48,0-.9-.14-1.24-.44-.35-.29-.52-.64-.52-1.05v-43.18ZM321.95,218.04c0-.41.17-.76.52-1.05.34-.29.76-.44,1.24-.44h8.79c.48,0,.89.15,1.24.44.34.29.52.64.52,1.05v34.25c0,.41.17.76.52,1.05.34.29.76.44,1.24.44h11.89c.48,0,.89.15,1.24.44.34.29.52.64.52,1.05v5.96c0,.41-.17.76-.52,1.05-.35.29-.76.44-1.24.44h-24.19c-.48,0-.9-.14-1.24-.44-.35-.29-.52-.64-.52-1.05v-43.18ZM316.94,283.76c0-.41.17-.76.52-1.05.34-.29.76-.44,1.24-.44h8.79c.55,0,.98.15,1.29.44.31.29.47.64.47,1.05v10.95c0,.41.17.78.52,1.1.34.32.76.51,1.24.57,1.65.23,3.21.54,4.65.92,1.45.38,2.79.8,4.03,1.27.41.17.78.21,1.09.09.31-.12.47-.41.47-.88v-14.02c0-.41.17-.76.52-1.05.34-.29.76-.44,1.24-.44h8.79c.48,0,.89.15,1.24.44.34.29.52.64.52,1.05v43.18c0,.41-.17.76-.52,1.05-.35.29-.76.44-1.24.44h-8.79c-.48,0-.9-.14-1.24-.44-.35-.29-.52-.64-.52-1.05v-13.93c0-.41-.07-.89-.21-1.44-.14-.56-.38-.98-.72-1.27-.76-.82-1.86-1.72-3.31-2.72-1.45-.99-3.45-1.72-6-2.19-.48-.12-.9-.04-1.24.22-.35.26-.52.6-.52,1.01v20.32c0,.41-.16.76-.47,1.05-.31.29-.74.44-1.29.44h-8.79c-.48,0-.9-.14-1.24-.44-.35-.29-.52-.64-.52-1.05v-43.18ZM302.57,218.04c0-.41.17-.76.52-1.05.34-.29.76-.44,1.24-.44h8.79c.48,0,.89.15,1.24.44.34.29.52.64.52,1.05v43.18c0,.41-.17.76-.52,1.05-.35.29-.76.44-1.24.44h-8.79c-.48,0-.9-.14-1.24-.44-.35-.29-.52-.64-.52-1.05v-43.18ZM237.88,216.94c.24-.26.6-.4,1.09-.4h9.31c.48,0,.93.13,1.34.4.41.26.69.6.83,1.01l8.17,25.14c.34.93.65.93.93,0l2.69-8.23c.14-.41.21-.89.21-1.44s-.07-1.04-.21-1.45l-4.55-14.01c-.14-.41-.09-.74.16-1.01.24-.26.6-.4,1.09-.4h9.3c.48,0,.93.13,1.34.4.41.26.69.6.83,1.01l8.17,25.14c.34.93.65.93.93,0l8.27-25.14c.14-.41.41-.74.83-1.01.41-.26.86-.4,1.34-.4h7.44c.48,0,.84.13,1.09.4.24.26.29.6.16,1.01l-14.06,43.36c-.35.93-1.1,1.4-2.27,1.4h-8.27c-1.17,0-1.93-.47-2.27-1.4l-3.1-9.64c-.14-.41-.29-.61-.47-.61s-.33.21-.47.61l-3.1,9.64c-.35.93-1.1,1.4-2.27,1.4h-8.27c-1.17,0-1.93-.47-2.27-1.4l-14.06-43.36c-.14-.41-.09-.74.15-1.01ZM193.28,264.92l10.13-.83c1.76-.14,3.16-1.54,3.31-3.31l.83-10.13c.11-1.29,1.99-1.29,2.09,0l.83,10.13c.14,1.76,1.54,3.16,3.31,3.31l10.13.83c1.29.11,1.29,1.99,0,2.09l-10.13.83c-1.76.14-3.16,1.54-3.31,3.31l-.83,10.13c-.11,1.29-1.99,1.29-2.09,0l-.83-10.13c-.14-1.76-1.54-3.16-3.31-3.31l-10.13-.83c-1.29-.11-1.29-1.99,0-2.09ZM268.31,179.02c-14.17,0-25.51-10.06-25.51-24.41s11.34-24.42,25.51-24.42,25.6,10.15,25.6,24.42-11.34,24.41-25.6,24.41ZM351.72,177.92h-10.69c-4.21,0-5.76-2.01-5.76-4.75v-1.74h-.18s-3.84,7.59-14.54,7.59c-12.62,0-20.76-9.97-20.76-24.41s8.87-24.42,21.21-24.42c10.15,0,13.44,5.67,13.44,5.67h.18s-.09-1.19-.09-2.74v-12.54c0-1.37-.73-2.01-2.01-2.01h-.41c-1.61,2.33-4.29,3.86-7.34,3.86-4.93,0-8.93-4-8.93-8.93s4-8.93,8.93-8.93c3.16,0,5.92,1.65,7.51,4.13h7.65c4.3,0,6.22,1.92,6.22,6.22v51.22c0,1.28.73,2.01,2.01,2.01h3.56v9.78ZM400.76,156.62h-32.18c.92,8.23,6.95,12.53,13.99,12.53,7.5,0,13.08-5.21,13.08-5.21l4.84,8.04s-7.13,7.04-18.74,7.04c-15.45,0-25.05-11.16-25.05-24.41,0-14.36,9.69-24.42,23.68-24.42s20.66,9.79,20.66,22.13c0,1.37-.28,4.3-.28,4.3ZM440.38,142.27s-1.19-.19-2.83-.19c-4.94,0-10.61,2.84-12.71,9.79-.64,2.29-1.01,4.84-1.01,7.59v18.47h-11.52v-34.75c0-1.37-.73-2.01-2.01-2.01h-3.66v-9.88h10.61c4.11,0,6.22,1.74,6.22,5.67v2.74c0,1.74-.18,2.93-.18,2.93h.18c2.1-6.67,7.68-11.98,14.81-11.98,1.01,0,2.1.18,2.1.18v11.43ZM500.9,177.92h-10.7c-4.02,0-6.13-1.92-6.13-5.21v-1.28c0-1.1.09-2.1.09-2.1h-.18c-2.2,4.85-8.05,9.69-16.09,9.69-9.97,0-16.09-5.03-16.09-17.74v-18.11c0-1.37-.73-2.01-2.01-2.01h-3.66v-9.88h11.06c4.3,0,6.12,1.92,6.12,6.13v21.49c0,5.67,1.46,9.51,7.23,9.51,8.41,0,13.07-7.4,13.07-15.72v-21.4h11.61v34.83c0,1.28.73,2.01,2.01,2.01h3.66v9.78ZM558.47,177.92h-11.07c-4.38,0-6.22-1.83-6.22-6.22v-21.4c0-5.67-1.46-9.51-7.31-9.51-6.22,0-10.88,3.93-12.53,9.51-.64,1.92-.91,4.02-.91,6.22v21.4h-11.52v-34.75c0-1.37-.73-2.01-2.01-2.01h-3.66v-9.88h10.7c4.11,0,6.12,1.92,6.12,5.21v1.37c0,1-.18,2.01-.18,2.01h.18c2.01-3.93,7.04-9.69,16.46-9.69,10.33,0,16.27,5.4,16.27,17.74v18.2c0,1.28.73,2.01,2.01,2.01h3.66v9.78ZM617.29,177.92h-11.06c-4.39,0-6.22-1.83-6.22-6.22v-21.4c0-5.67-1.46-9.51-7.31-9.51-6.22,0-10.88,3.93-12.53,9.51-.64,1.92-.91,4.02-.91,6.22v21.4h-11.52v-34.75c0-1.37-.73-2.01-2.01-2.01h-3.66v-9.88h10.7c4.11,0,6.12,1.92,6.12,5.21v1.37c0,1-.18,2.01-.18,2.01h.18c2.01-3.93,7.04-9.69,16.46-9.69,10.33,0,16.27,5.4,16.27,17.74v18.2c0,1.28.73,2.01,2.01,2.01h3.66v9.78ZM665.96,156.62h-32.18c.92,8.23,6.95,12.53,13.99,12.53,7.5,0,13.08-5.21,13.08-5.21l4.84,8.04s-7.13,7.04-18.74,7.04c-15.45,0-25.05-11.16-25.05-24.41,0-14.36,9.69-24.42,23.68-24.42s20.66,9.79,20.66,22.13c0,1.37-.28,4.3-.28,4.3ZM705.58,142.27s-1.19-.19-2.83-.19c-4.94,0-10.61,2.84-12.71,9.79-.64,2.29-1.01,4.84-1.01,7.59v18.47h-11.52v-34.75c0-1.37-.73-2.01-2.01-2.01h-3.66v-9.88h10.61c4.11,0,6.22,1.74,6.22,5.67v2.74c0,1.74-.18,2.93-.18,2.93h.18c2.1-6.67,7.68-11.98,14.81-11.98,1.01,0,2.1.18,2.1.18v11.43ZM729.28,179.02c-12.8,0-19.38-8.32-19.38-8.32l5.49-7.59s5.94,6.86,13.9,6.86c3.57,0,6.31-1.46,6.31-4.57,0-6.59-24.59-6.49-24.59-21.58,0-9.32,8.41-13.62,18.1-13.62,6.31,0,16.37,2.1,16.37,9.69v4.85h-10.24v-2.29c0-2.2-3.29-3.29-5.85-3.29-4.11,0-6.95,1.47-6.95,4.21,0,7.31,24.78,5.85,24.78,21.4,0,8.78-7.77,14.26-17.92,14.26Z"/>
        <path d="M380.37,139.15c-5.94,0-10.15,3.57-11.43,9.42h20.21c-.18-5.58-4.02-9.42-8.78-9.42Z"/>
        <path d="M268.31,140.07c-7.5,0-13.81,5.94-13.81,14.54s6.31,14.54,13.81,14.54,13.9-5.85,13.9-14.54-6.31-14.54-13.9-14.54Z"/>
        <path d="M645.58,139.15c-5.94,0-10.15,3.57-11.43,9.42h20.21c-.18-5.58-4.02-9.42-8.78-9.42Z"/>
        <path d="M138.01,51.96c-.05.07-.11.14-.16.21-.11.15-.22.3-.32.44-.07.1-.14.2-.21.29-.11.15-.22.3-.31.44-.13.18-.25.35-.36.51-.05.07-.09.13-.14.2-.05.06-.09.13-.14.19-.07.1-.14.19-.21.28-.04.05-.08.11-.12.16-.05.06-.1.13-.15.19-.1.12-.2.24-.31.35-.04.04-.07.07-.11.11-.04.04-.09.08-.13.12-.75.67-1.68.96-3.87,1.39-1.38.27-3.27.6-5.94,1.12-.53.11-1.07.23-1.6.35-10.98,2.49-21.46,7.25-30.12,14.51.81.66,1.58,1.28,2.34,1.89,1.11.9,2.19,1.77,3.23,2.66.23.19.43.31.63.36.31.09.61.02.93-.15.1-.06.21-.12.32-.19,1.7-1.15,3.45-2.22,5.24-3.19.45-.24.9-.48,1.35-.72,4.98-2.58,10.28-4.55,15.69-6.08,1.15-.3,2.31-.58,3.48-.84,4.66-1.03,9.42-1.69,14.2-1.44.54.01.97-.42.97-.95-.02-1.24-.02-2.49-.02-3.73,0-4.44.06-8.87-.05-13.31h0c-1.92,2.07-3.2,3.64-4.12,4.85Z"/>
        <path d="M153.17,229.54c16.84-1.43,32.91-9.28,45.62-20.26h0s-5.79-5.79-5.79-5.79h0c-.08.03-.16.07-.22.14-1.46,1.16-2.94,2.28-4.47,3.35-3.71,2.61-7.63,4.91-11.75,6.78-1.19.54-2.39,1.05-3.61,1.51-1.36.5-2.73.99-4.11,1.44-7.25,2.4-14.87,4.08-22.48,3.89v23.94c3.38-4.64,6.67-9.17,6.82-15.01h0Z"/>
        <path d="M89.03,76.23c-2.85,2.88-5.74,5.72-8.45,8.73-8.21,9.38-14.46,20.52-18.28,32.42-.35,1.08-.67,2.17-.98,3.26,0,.01,0,.02,0,.03-1.22,4.38-2.11,8.84-2.65,13.35-3.4,29.02,9.44,58.85,32.43,76.81,11.46,9.34,25.29,16.06,39.92,18.5,1.08.18,2.17.34,3.27.47.07,0,.13.02.19.04.41.1.55.36.63.77.03.14.07.29.11.43.12.51.26,1.02.42,1.53,1.43,4.55,4.21,8.89,6.85,12.61h0c.16-7.89-.03-15.8.06-23.7,0-.07,0-.13,0-.18,0-.02,0-.04,0-.05,0-.05-.02-.09-.03-.14,0-.02,0-.04-.01-.06-.1-.36-.37-.49-.88-.46-9.99.18-19.83-2.51-28.99-6.33-8.63-3.73-16.51-9.13-23.23-15.72-2.61-2.56-5.05-5.3-7.29-8.2-.75-.97-1.47-1.95-2.17-2.95-.7-1-1.38-2.01-2.03-3.04-.65-1.03-1.28-2.07-1.89-3.13-1.21-2.12-2.32-4.29-3.32-6.51-1.27-2.82-2.38-5.71-3.29-8.67-5.42-17.75-4.27-36.72,2.59-53.38,5.02-12.2,13.1-23.16,23.9-31.5,0,0,0,0,0,0-1.55-.93-5.68-5.84-6.88-4.93Z"/>
        <path d="M203.74,204.85c1.01-.96,1.99-1.94,2.96-2.94,3.39-3.51,6.49-7.26,9.2-11.35,13.85-19.86,17.4-44.29,12.41-66.84-.28-1.29-.59-2.57-.93-3.84-3.15,0-6.13,0-8.9,0,.08.27.16.54.24.81.1.33.19.66.29.99.11.38.21.75.31,1.13.22.83.44,1.67.63,2.51.07.31.15.62.21.94.11.5.22,1.01.32,1.51,1.53,7.58,1.96,15.44,1.13,23.34-.32,3.05-.82,6.1-1.53,9.14-2.59,10.6-7.17,20.75-13.8,29.45-2.59,3.38-5.39,6.63-8.51,9.54l5.77,5.77c.05-.05.11-.1.17-.16Z"/>
        <path d="M208.01,98.25c2.32,3.36,4.28,6.94,6.05,10.62h3.19c2.03,0,4.16,0,6.37,0,0,0,0,0,0,0-7.37-17.96-20.46-33.6-38.51-42.97-2.64-1.48-5.38-2.73-8.2-3.82-.41-.16-.81-.31-1.22-.46-6.14-2.23-12.6-3.66-19.02-4.7-.37-.12-.71-.17-1.03-.21-1.2-.15-2.13,0-3.04-1.36-.85-1.57-3.21-4.15-5.21-6.35-.36-.39-.7-.77-1.02-1.13h0v16.82h0c.21.09.43.16.66.22,3.68.32,7.11.18,14.43,1.7,19.69,4.44,35.88,16.17,46.56,31.63Z"/>
        <path d="M690.03,260.82l.6.11c2.09.37,3.51,2.33,3.21,4.42l-.09.61c-.1.71.79,1.1,1.24.56l.39-.47c1.36-1.62,3.77-1.87,5.44-.57l.48.38c.56.44,1.35-.13,1.1-.8l-.21-.57c-.73-1.99.26-4.2,2.23-4.99l.57-.23c.66-.27.56-1.23-.14-1.36l-.6-.11c-2.09-.37-3.51-2.33-3.21-4.42l.09-.61c.1-.71-.79-1.1-1.24-.56l-.39.47c-1.36,1.62-3.77,1.87-5.43.56l-.48-.38c-.56-.44-1.35.13-1.1.8l.21.57c.72,1.99-.26,4.2-2.23,4.99l-.57.23c-.66.27-.56,1.23.14,1.36Z"/>
        <path d="M810.98,187.53l-.43-.11-.78-.19-1.42-.35-.68-.17s-.03-.01-.04-.02c-.05-.02-.1-.05-.15-.08-.01,0-.02-.01-.03-.02-.04-.02-.07-.04-.11-.06-.2-.11-.36-.24-.49-.42-.12-.18-.2-.38-.25-.58-.1-.46.01-.95.41-1.32l.94-.88,1.24-1.16.3-.28c.27-.26.39-.55.41-.85.01-.18-.01-.36-.06-.53-.08-.31-.23-.56-.48-.77-.37-.31-.85-.5-1.41-.27l-.95.38-2.2.89c-.14.05-.27.09-.41.1-.54.06-1.04-.19-1.34-.61-.22-.31-.33-.71-.25-1.14l.03-.18.61-3.16s0-.08.01-.13c.04-.36-.05-.67-.22-.91-.14-.2-.34-.37-.56-.48-.07-.03-.11-.08-.18-.11,0,0,0,0,0,0h0c-.07-.02-.14-.04-.21-.06,0,0-.01,0-.02,0-.3-.06-.63-.03-.91.12-.22.11-.41.28-.57.53l-1.36,2.18-.11.17-.34.54c-.62.99-2.09.9-2.58-.16l-.96-2.06-.48-1.03c-.16-.34-.4-.57-.68-.7-.91-.43-2.17.19-2.09,1.42l.21,2.95.03.44c0,.07,0,.14,0,.21,0,0,0,0,0,0,0,.04-.01.08-.02.12,0,.03,0,.05-.01.08,0,.03-.02.07-.03.1,0,.03-.02.06-.03.09-.02.05-.04.09-.06.13,0,.02-.01.03-.02.05,0,.01-.01.02-.02.03-.37.67-1.24.99-2,.57l-2.98-1.65c-.88-.49-1.78.01-2.07.76-.02.06-.04.13-.06.19,0,.01,0,.02-.01.04-.08.39,0,.83.32,1.22l2.19,2.61c.2.24.31.51.34.78.08.75-.43,1.52-1.28,1.62l-3.38.42c-.37.05-.64.21-.84.44-.16.18-.26.4-.32.64-.19.72.08,1.55.99,1.78l3.3.82c.07.02.12.08.19.11.54.22.87.72.92,1.24,0,.05,0,.1,0,.14,0,.01,0,.02,0,.03,0,.16-.04.32-.1.47,0,.02-.01.03-.02.05,0,0,0,0,0,0-.08.16-.18.32-.33.45l-.19.18-.28.26-2.02,1.89c-.49.45-.56,1.05-.38,1.54.03.09.07.17.12.25.33.57,1.03.92,1.79.61l.48-.2,2.67-1.08c.81-.33,1.65.12,1.93.84.09.24.12.52.07.8l-.07.37-.02.11-.55,2.85c-.05.23-.03.44.02.63,0,.02,0,.04.02.07.02.07.05.13.09.19.1.19.24.34.41.47.06.04.11.08.17.12.02.01.04.04.06.06.03.03.06.06.1.08,0,0,0,0,.02.01h0c.23.09.47.13.72.11.15-.01.3-.06.44-.12.15-.07.3-.17.42-.3,0,0,.02-.02.03-.02,0-.01.02-.02.03-.03.05-.06.1-.12.15-.2l1.45-2.33.15-.24.2-.32c.08-.12.17-.23.27-.32.7-.63,1.88-.45,2.31.48l1.18,2.52.26.56c.03.06.06.11.09.16.25.39.63.54,1.02.6.06,0,.11,0,.17.01.17,0,.33-.02.49-.07.06-.02.12-.04.18-.07.12-.06.23-.13.34-.22.17-.14.31-.32.4-.54.07-.17.1-.36.09-.58l-.04-.57-.07-.94-.05-.73-.08-1.16c-.03-.41.11-.76.35-1.02.21-.23.49-.4.8-.47.21-.05.43-.05.65,0,.04,0,.08.02.12.03.09.03.18.01.27.06l1.87,1.03.32.18.79.44c.44.24.89.24,1.26.08.12-.05.24-.12.34-.21.02-.02.04-.03.06-.05.42-.37.63-.98.43-1.55-.06-.16-.15-.33-.28-.48l-1.56-1.86-.55-.66-.08-.09s-.02-.03-.03-.04c-.06-.08-.11-.16-.16-.24-.02-.04-.04-.08-.05-.12-.21-.52-.09-1.1.25-1.5.22-.26.54-.45.93-.5l.98-.12,2.4-.3c.8-.1,1.23-.72,1.27-1.36.02-.36-.08-.72-.31-1-.18-.23-.44-.41-.79-.5Z"/>
        <path d="M786.04,90.65h-382s0,0,0,0c-1.66-3.87-4.15-7.3-7.24-10.05-.21-.18-.42-.36-.63-.54-4.94-4.16-11.3-6.66-18.17-6.66h-112.71c-.05-.08-.12-.16-.17-.24h-.15c-2.17-3.25-4.47-6.39-6.87-9.41-1.27-1.6-2.57-3.16-3.9-4.69-.66-.76-1.33-1.51-2.01-2.26-.23-.26-.48-.51-.71-.76-.45-.48-.89-.97-1.34-1.44-.4-.42-.81-.83-1.22-1.25-.29-.3-.59-.61-.88-.91-.49-.49-.98-.97-1.47-1.45-.22-.22-.44-.44-.67-.66-.51-.49-1.04-.98-1.56-1.47-.21-.2-.42-.4-.63-.59-.59-.55-1.19-1.08-1.8-1.62-.14-.13-.28-.26-.43-.39-.55-.49-1.12-.97-1.68-1.44-.2-.17-.39-.34-.59-.51-.54-.46-1.09-.9-1.64-1.35-.22-.18-.44-.37-.66-.54,0,0-.01,0-.02-.01,0,0,0,0-.01,0-9.62-7.68-20.21-13.99-31.52-18.78-.87-.37-1.74-.73-2.62-1.08-15.8-6.3-32.92-9.65-50.64-9.65-6.97,0-13.81.53-20.5,1.54-.09.01-.18.03-.27.04-1.23.19-2.45.39-3.66.61-1.82.33-3.63.7-5.43,1.1-1.2.27-2.39.55-3.57.85-14.22,3.61-27.56,9.46-39.61,17.15-.5.32-1,.64-1.5.97-.05.03-.09.06-.14.09-1.24.82-2.46,1.65-3.67,2.51-.23.16-.46.33-.69.49-1.14.81-2.26,1.64-3.37,2.49-.96.73-1.91,1.47-2.85,2.23-1.44,1.16-2.85,2.35-4.24,3.56-2.3,2.01-4.54,4.1-6.7,6.26-.45.45-.9.91-1.35,1.37-23.85,24.53-38.56,57.99-38.56,94.82h0c0,75.05,61.05,136.09,136.09,136.09,6.24,0,12.48-.43,18.64-1.27l3.5,7.98c2.01,4.57,5.33,8.31,9.4,10.84.58.36,1.18.7,1.79,1.01.26.13.52.26.78.38.52.24,1.06.47,1.6.68,2.71,1.03,5.63,1.59,8.63,1.59h21.38l4.46,14.48c.54,1.77,1.15,3.5,1.82,5.19.34.85.69,1.68,1.06,2.51,2.21,4.96,4.97,9.56,8.2,13.75.54.7,1.09,1.38,1.65,2.06.56.67,1.14,1.33,1.73,1.98.29.32.59.65.89.96,1.15,1.22,2.35,2.4,3.59,3.53,11.99,10.92,27.86,17.35,45.04,17.39l317.59.73c41.09,0,77.69-26.36,91.01-64.82,1.94-.47,3.85-1.01,5.74-1.63.94-.31,1.88-.63,2.81-.97,13.97-5.11,26.36-14.08,35.58-25.78,2.05-2.6,3.94-5.33,5.66-8.19h0c24.07-9.44,37.28-26.08,47.73-47.19,0,0,0,0,0,0-.04,0-.07.01-.1.01-2.31,0-4.52-.35-6.67-.87-9.94,19.15-22.63,34.02-45,42.03-10.49,19.02-29.33,32.51-50.69,36.34-11.02,37.73-45.93,63.97-85.51,63.97h-.4s-318.28-.73-318.28-.73c-21.07-.05-39.92-10.94-50.53-28.21-.28-.45-.55-.91-.82-1.37-.07-.12-.14-.25-.21-.37-2.14-3.76-3.9-7.81-5.21-12.09l-3.75-12.19-2.42-7.87h-27.25c-6.56,0-12.49-3.88-15.13-9.88l-5.94-13.55h0c-.43.08-.86.15-1.29.22-7.3,1.27-14.75,1.92-22.16,1.92h0c-34.41,0-65.71-13.56-88.84-35.62-.75-.71-1.48-1.43-2.21-2.16-1.09-1.09-2.17-2.21-3.22-3.34-21.43-23.02-34.55-53.86-34.55-87.72,0-29.26,9.81-56.28,26.31-77.93.37-.48.74-.96,1.11-1.44,23.6-30.09,60.29-49.46,101.41-49.46,36.24,0,69.84,14.81,93.92,40.57,5.73,6.13,10.92,12.87,15.48,20.18h117.43c4.99,0,9.62,1.82,13.22,4.85,3.7,3.11,6.31,7.49,7.11,12.48h389.38c10.66,0,20.61,5.26,26.6,14.08,1.12,1.65,2.08,3.39,2.87,5.19,1.83,4.19,2.74,8.69,2.7,13.22,0,0,0,0,0,.01,0,.02,0,.05,0,.07-.05,3.86-.79,7.73-2.26,11.42l-5.35,13.52-4.86,12.29c.64.4,1.27.82,1.88,1.26,1.19.86,2.32,1.79,3.35,2.83l10.61-26.83c.8-2.01,1.42-4.07,1.88-6.15.06-.3.13-.59.18-.89,2.01-10.32-.13-21.13-6.16-29.99-7.42-10.92-19.74-17.44-32.94-17.44Z"/>
        <path d="M146.5,207.64c6.64-.19,13.04-1.39,19.04-3.52.39-.14.77-.28,1.16-.42.17-.06.34-.12.52-.19.19-.07.37-.15.56-.22.22-.09.44-.17.66-.26.01,0,.03-.01.04-.02.61-.25,1.21-.51,1.81-.78,21.61-9.71,37.05-31.21,38.2-55.79,0-.02,0-.04,0-.06,0-.13,0-.26.02-.39.05-1.2.04-2.41,0-3.63,0-.27-.01-.53-.02-.8,0-.21-.02-.42-.03-.63-.01-.31-.03-.63-.05-.94,0-.06,0-.13-.01-.19-.03-.46-.06-.91-.1-1.37-.04-.45-.07-.91-.11-1.36-.07-.82-.15-1.63-.26-2.46,0-.03,0-.07-.01-.1-.02-.16-.05-.32-.08-.47-.04-.19-.07-.39-.11-.58-.02-.1-.04-.19-.05-.29-.13-.79-.26-1.57-.41-2.36-.16-.84-.33-1.68-.54-2.53h0s.06,0,.06,0h0c-.29-1.22-.64-2.41-1.01-3.59-.5-1.56-1.06-3.1-1.65-4.62-.02-.06-.05-.12-.07-.18-25.92,0-27.69.01-29.43.03-2.01.02-2.37.77-2.43,1.98,0,.14,0,.29,0,.44-.03,2.15-.04,4.31-.05,6.46,0,.03,0,.05,0,.08h0c-.02,15.29.49,30.61-.26,45.83-1.48,4.64-6.93,3.15-10.59,3.31-.33,0-.75-.23-.93-.49-1.69-2.37-3.34-4.76-4.98-7.15,0-.01-.02-.03-.03-.04-2.42-3.53-14.83-21.09-22.02-32.34-.15-.23-.3-.47-.45-.7-.13-.2-.25-.4-.38-.6-.09-.14-.18-.28-.26-.42-1.47-2.35-2.64-4.32-3.34-5.71,0,0,0,0,0,0,0,0,0,0,0,0,.74,12.41.41,24.96.44,37.45,0,1.13,0,2.27.02,3.4,0,1.47-.62,2.92-1.61,4.09-.14.17-.29.33-.44.48,0,0,0,0,0,0-.16.16-.32.3-.49.45-.17.14-.34.28-.52.4-1.08.76-2.34,1.22-3.62,1.21-7.83-.03-15.66,0-23.49-.03-2.38-.32-3.38,2.52-5.57,3.04-.36.12-.55.3-.61.53-.06.21-.01.46.11.73.03.08.08.16.12.24.02.03.04.06.05.09.03.05.06.1.1.16.02.04.05.08.08.11.03.05.06.09.1.14.03.04.07.09.1.13.03.04.06.08.1.12.04.05.08.1.12.15.03.04.06.07.09.11.05.06.1.11.15.17.03.03.05.06.08.08.06.06.12.13.18.19.02.02.03.03.05.05.07.08.14.15.22.23.02.02.03.03.05.05.02.02.03.04.05.05,0,0,0,0,0,0,.43.45.8.84,1.09,1.18.11.12.22.24.33.36.4.45.8.88,1.21,1.32.16.17.32.34.48.51,2.25,2.33,4.67,4.5,7.23,6.49.66.51,1.33,1.01,2.01,1.5.43.31.86.62,1.3.91,0,0,.01,0,.02.01,1.03.7,2.08,1.37,3.16,2.01.04.02.08.05.12.08.44.26.89.51,1.34.75.33.18.65.35.98.53.02.01.05.03.07.04.6.32,1.19.64,1.79.95.32.16.63.32.95.48.1.05.19.1.29.14.06.03.11.05.17.08,1.45.68,2.94,1.3,4.45,1.86.07.03.14.06.21.08.92.34,1.86.63,2.8.92,0,0,.02,0,.03,0,.83.26,1.66.51,2.5.74.02,0,.04.01.07.02.03,0,.06.02.1.02.34.09.67.18,1.01.26.99.25,1.98.48,2.99.67,2.09.44,4.17.77,6.23,1,.03,0,.06,0,.1,0,1.08.11,2.17.21,3.27.28.95.06,1.9.1,2.86.11.89.01,1.77-.06,2.65-.08Z"/>
        <path class="cls-2" d="M286.43,291.65c.34.29.52.64.52,1.05v34.25c0,.41.16.76.47,1.05.31.29.74.44,1.29.44h8.79c.48,0,.9-.14,1.24-.44.34-.29.52-.64.52-1.05v-34.25c0-.41.16-.76.47-1.05.31-.29.74-.44,1.29-.44h8.89c.48,0,.9-.14,1.24-.44.34-.29.52-.64.52-1.05v-5.96c0-.41-.17-.76-.52-1.05-.35-.29-.76-.44-1.24-.44h-33.6c-.55,0-.98.15-1.29.44-.31.29-.47.64-.47,1.05v5.96c0,.41.15.76.47,1.05.31.29.74.44,1.29.44h8.89c.48,0,.89.15,1.24.44Z"/>
        <path class="cls-2" d="M318.7,328.44h8.79c.55,0,.98-.14,1.29-.44.31-.29.47-.64.47-1.05v-20.32c0-.41.17-.74.52-1.01.34-.26.76-.34,1.24-.22,2.55.47,4.55,1.2,6,2.19,1.45.99,2.55,1.9,3.31,2.72.34.29.58.72.72,1.27.14.55.21,1.04.21,1.44v13.93c0,.41.17.76.52,1.05.34.29.76.44,1.24.44h8.79c.48,0,.89-.14,1.24-.44.34-.29.52-.64.52-1.05v-43.18c0-.41-.17-.76-.52-1.05-.35-.29-.76-.44-1.24-.44h-8.79c-.48,0-.9.15-1.24.44-.35.29-.52.64-.52,1.05v14.02c0,.47-.16.76-.47.88-.31.12-.67.09-1.09-.09-1.24-.47-2.58-.89-4.03-1.27-1.45-.38-3-.69-4.65-.92-.48-.06-.9-.25-1.24-.57-.35-.32-.52-.68-.52-1.1v-10.95c0-.41-.16-.76-.47-1.05-.31-.29-.74-.44-1.29-.44h-8.79c-.48,0-.9.15-1.24.44-.35.29-.52.64-.52,1.05v43.18c0,.41.17.76.52,1.05.34.29.76.44,1.24.44Z"/>
        <path class="cls-2" d="M363.36,282.71c-.35.29-.52.64-.52,1.05v43.18c0,.41.17.76.52,1.05.34.29.76.44,1.24.44h25.23c.48,0,.89-.14,1.24-.44.34-.29.52-.64.52-1.05v-5.96c0-.41-.17-.76-.52-1.05-.35-.29-.76-.44-1.24-.44h-12.92c-.48,0-.9-.14-1.24-.44-.35-.29-.52-.64-.52-1.05v-9.72c0-.41.14-.83.41-1.27.27-.44.65-.74,1.14-.92.89-.35,2.05-.66,3.46-.92,1.41-.26,3.19-.33,5.32-.22,1.1,0,1.72-.47,1.86-1.4l.62-5.96c.07-.41-.05-.77-.36-1.09-.31-.32-.71-.48-1.19-.48-1.86-.12-3.58-.12-5.17,0-1.59.12-3.03.32-4.34.61-1.17.17-1.76-.21-1.76-1.14v-2.8c0-.41.17-.76.52-1.05.34-.29.76-.44,1.24-.44h12.92c.48,0,.89-.14,1.24-.44.34-.29.52-.64.52-1.05v-5.96c0-.41-.17-.76-.52-1.05-.35-.29-.76-.44-1.24-.44h-25.23c-.48,0-.9.15-1.24.44Z"/>
        <path class="cls-2" d="M431.49,328.44h25.23c.48,0,.9-.14,1.24-.44.34-.29.52-.64.52-1.05v-5.96c0-.41-.17-.76-.52-1.05-.35-.29-.76-.44-1.24-.44h-12.92c-.48,0-.9-.14-1.24-.44-.35-.29-.52-.64-.52-1.05v-9.72c0-.41.14-.83.41-1.27.27-.44.65-.74,1.14-.92.89-.35,2.05-.66,3.46-.92,1.41-.26,3.19-.33,5.32-.22,1.1,0,1.72-.47,1.86-1.4l.62-5.96c.07-.41-.05-.77-.36-1.09-.31-.32-.71-.48-1.19-.48-1.86-.12-3.58-.12-5.17,0-1.59.12-3.03.32-4.34.61-1.17.17-1.76-.21-1.76-1.14v-2.8c0-.41.17-.76.52-1.05.34-.29.76-.44,1.24-.44h12.92c.48,0,.9-.14,1.24-.44.34-.29.52-.64.52-1.05v-5.96c0-.41-.17-.76-.52-1.05-.35-.29-.76-.44-1.24-.44h-25.23c-.48,0-.9.15-1.24.44-.35.29-.52.64-.52,1.05v43.18c0,.41.17.76.52,1.05.34.29.76.44,1.24.44Z"/>
        <path class="cls-2" d="M463.49,328.04c.24.26.6.39,1.09.39h7.44c.48,0,.93-.13,1.34-.39.41-.26.69-.6.83-1.01l2.07-6.31c.14-.41.41-.75.83-1.01.41-.26.89-.34,1.45-.22,2.69.35,4.93.92,6.72,1.71,1.79.79,3.21,1.59,4.24,2.41.34.29.69.69,1.03,1.18.34.5.58.95.72,1.36l.31.88c.14.41.41.75.83,1.01.41.26.86.39,1.34.39h9.2c1.17,0,1.62-.47,1.34-1.4l-14.06-43.36c-.35-.93-1.1-1.4-2.27-1.4h-8.27c-.55,0-1.03.13-1.45.4-.41.26-.69.6-.83,1.01l-14.06,43.36c-.14.41-.09.75.15,1.01ZM480.09,309.08l2.27-7.18c.34-.88.69-.88,1.03,0l2.79,8.67c.27.93-.14,1.26-1.24.96-.55-.12-1.14-.25-1.76-.39-.62-.14-1.24-.28-1.86-.39-.48-.06-.84-.25-1.09-.57-.24-.32-.29-.69-.16-1.1Z"/>
        <path class="cls-2" d="M540.59,302.6c1.38-1.17,2.53-2.47,3.46-3.9.93-1.43,1.4-3.05,1.4-4.86s-.41-3.33-1.24-4.73c-.83-1.4-1.96-2.61-3.41-3.64-1.45-1.02-3.14-1.81-5.07-2.36-1.93-.55-4.03-.83-6.31-.83h-19.33c-.48,0-.9.15-1.24.44-.35.29-.52.64-.52,1.05v43.18c0,.41.17.76.52,1.05.34.29.76.44,1.24.44h8.79c.48,0,.89-.14,1.24-.44.34-.29.52-.64.52-1.05v-14.8c0-.47.16-.86.47-1.18.31-.32.74-.54,1.29-.66.55-.12,1.19-.26,1.91-.44.72-.17,1.53-.41,2.43-.7.48-.12.98-.12,1.5,0,.52.12.91.35,1.19.7,1.17,1.46,2.34,3.55,3.51,6.26,1.17,2.72,1.83,6.32,1.96,10.82,0,.41.17.76.52,1.05.34.29.76.44,1.24.44h8.79c.48,0,.89-.14,1.24-.44.34-.29.52-.64.52-1.05-.14-5.31-.91-9.77-2.33-13.36-1.41-3.59-2.95-6.5-4.6-8.72-.62-.82-.52-1.58.31-2.28ZM531.9,296.12c-.83.76-1.81,1.43-2.95,2.01-1.14.58-2.33,1.08-3.57,1.49-1.24.41-2.27.73-3.1.96-1.1.23-1.65-.14-1.65-1.14v-6.75c0-.41.17-.76.52-1.05.34-.29.76-.44,1.24-.44h7.03c1.31,0,2.26.25,2.84.74.58.5.88,1.04.88,1.62,0,.93-.41,1.78-1.24,2.54Z"/>
        <path class="cls-2" d="M562.47,328c.31.29.74.44,1.29.44h8.79c.48,0,.89-.14,1.24-.44.34-.29.52-.64.52-1.05v-34.25c0-.41.16-.76.47-1.05.31-.29.74-.44,1.29-.44h8.89c.48,0,.9-.14,1.24-.44.34-.29.52-.64.52-1.05v-5.96c0-.41-.17-.76-.52-1.05-.35-.29-.76-.44-1.24-.44h-33.6c-.55,0-.98.15-1.29.44-.31.29-.47.64-.47,1.05v5.96c0,.41.15.76.47,1.05.31.29.74.44,1.29.44h8.89c.48,0,.89.15,1.24.44.34.29.52.64.52,1.05v34.25c0,.41.16.76.47,1.05Z"/>
        <path class="cls-2" d="M592.52,282.71c-.35.29-.52.64-.52,1.05v43.18c0,.41.17.76.52,1.05.34.29.76.44,1.24.44h8.79c.55,0,.98-.14,1.29-.44.31-.29.47-.64.47-1.05v-20.32c0-.41.17-.74.52-1.01.34-.26.76-.34,1.24-.22,2.55.47,4.55,1.2,6,2.19,1.45.99,2.55,1.9,3.31,2.72.34.29.58.72.72,1.27.14.55.21,1.04.21,1.44v13.93c0,.41.17.76.52,1.05.34.29.76.44,1.24.44h8.79c.48,0,.89-.14,1.24-.44.34-.29.52-.64.52-1.05v-43.18c0-.41-.17-.76-.52-1.05-.35-.29-.76-.44-1.24-.44h-8.79c-.48,0-.9.15-1.24.44-.35.29-.52.64-.52,1.05v14.02c0,.47-.16.76-.47.88-.31.12-.67.09-1.09-.09-1.24-.47-2.58-.89-4.03-1.27-1.45-.38-3-.69-4.65-.92-.48-.06-.9-.25-1.24-.57-.35-.32-.52-.68-.52-1.1v-10.95c0-.41-.16-.76-.47-1.05-.31-.29-.74-.44-1.29-.44h-8.79c-.48,0-.9.15-1.24.44Z"/>
        <path class="cls-2" d="M251.79,261.31c.34.93,1.1,1.4,2.27,1.4h8.27c1.17,0,1.93-.47,2.27-1.4l3.1-9.64c.14-.41.29-.61.47-.61s.33.21.47.61l3.1,9.64c.34.93,1.1,1.4,2.27,1.4h8.27c1.17,0,1.93-.47,2.27-1.4l14.06-43.36c.14-.41.09-.74-.16-1.01-.24-.26-.6-.4-1.09-.4h-7.44c-.48,0-.93.13-1.34.4-.41.26-.69.6-.83,1.01l-8.27,25.14c-.28.93-.59.93-.93,0l-8.17-25.14c-.14-.41-.41-.74-.83-1.01-.41-.26-.86-.4-1.34-.4h-9.3c-.48,0-.84.13-1.09.4-.24.26-.29.6-.16,1.01l4.55,14.01c.14.41.21.89.21,1.45s-.07,1.04-.21,1.44l-2.69,8.23c-.28.93-.59.93-.93,0l-8.17-25.14c-.14-.41-.41-.74-.83-1.01-.41-.26-.86-.4-1.34-.4h-9.31c-.48,0-.84.13-1.09.4-.24.26-.29.6-.15,1.01l14.06,43.36Z"/>
        <path class="cls-2" d="M304.33,262.71h8.79c.48,0,.89-.14,1.24-.44.34-.29.52-.64.52-1.05v-43.18c0-.41-.17-.76-.52-1.05-.35-.29-.76-.44-1.24-.44h-8.79c-.48,0-.9.15-1.24.44-.35.29-.52.64-.52,1.05v43.18c0,.41.17.76.52,1.05.34.29.76.44,1.24.44Z"/>
        <path class="cls-2" d="M323.71,262.71h24.19c.48,0,.89-.14,1.24-.44.34-.29.52-.64.52-1.05v-5.96c0-.41-.17-.76-.52-1.05-.35-.29-.76-.44-1.24-.44h-11.89c-.48,0-.9-.14-1.24-.44-.35-.29-.52-.64-.52-1.05v-34.25c0-.41-.17-.76-.52-1.05-.35-.29-.76-.44-1.24-.44h-8.79c-.48,0-.9.15-1.24.44-.35.29-.52.64-.52,1.05v43.18c0,.41.17.76.52,1.05.34.29.76.44,1.24.44Z"/>
        <path class="cls-2" d="M357.18,262.71h24.19c.48,0,.89-.14,1.24-.44.34-.29.52-.64.52-1.05v-5.96c0-.41-.17-.76-.52-1.05-.35-.29-.76-.44-1.24-.44h-11.89c-.48,0-.9-.14-1.24-.44-.35-.29-.52-.64-.52-1.05v-34.25c0-.41-.17-.76-.52-1.05-.35-.29-.76-.44-1.24-.44h-8.79c-.48,0-.9.15-1.24.44-.35.29-.52.64-.52,1.05v43.18c0,.41.17.76.52,1.05.34.29.76.44,1.24.44Z"/>
        <path class="cls-2" d="M417.56,262.71h8.79c.48,0,.89-.14,1.24-.44.34-.29.52-.64.52-1.05v-43.18c0-.41-.17-.76-.52-1.05-.35-.29-.76-.44-1.24-.44h-8.79c-.48,0-.9.15-1.24.44-.35.29-.52.64-.52,1.05v43.18c0,.41.17.76.52,1.05.34.29.76.44,1.24.44Z"/>
        <path class="cls-2" d="M439.28,262.71h8.79c.48,0,.89-.14,1.24-.44.34-.29.52-.64.52-1.05v-18.74c0-.99.17-1.28.52-.88.07.12.14.21.21.26.07.06.14.15.21.26,1.24,1.46,2.41,2.9,3.52,4.34,1.1,1.43,2.1,2.9,3,4.42.9,1.52,1.62,3.13,2.17,4.82.55,1.69.89,3.53,1.03,5.52,0,.41.17.76.52,1.05.34.29.76.44,1.24.44h8.79c.48,0,.9-.14,1.24-.44.34-.29.52-.64.52-1.05v-43.18c0-.41-.17-.76-.52-1.05-.35-.29-.76-.44-1.24-.44h-8.79c-.48,0-.9.15-1.24.44-.35.29-.52.64-.52,1.05v18.83c0,.93-.17,1.2-.52.79-.14-.12-.22-.22-.26-.31-.04-.09-.12-.19-.26-.31-1.24-1.46-2.41-2.9-3.51-4.34-1.1-1.43-2.09-2.9-2.95-4.42-.86-1.52-1.57-3.11-2.12-4.77-.55-1.66-.9-3.49-1.03-5.47,0-.41-.17-.76-.52-1.05-.35-.29-.76-.44-1.24-.44h-8.79c-.48,0-.9.15-1.24.44-.35.29-.52.64-.52,1.05v43.18c0,.41.17.76.52,1.05.34.29.76.44,1.24.44Z"/>
        <path class="cls-2" d="M482.5,262.71h8.79c.55,0,.98-.14,1.29-.44.31-.29.47-.64.47-1.05v-20.32c0-.41.17-.74.52-1.01.34-.26.76-.34,1.24-.22,2.55.47,4.55,1.2,6,2.19,1.45.99,2.55,1.9,3.31,2.72.34.29.59.72.72,1.27.14.55.21,1.04.21,1.44v13.93c0,.41.17.76.52,1.05.34.29.76.44,1.24.44h8.79c.48,0,.89-.14,1.24-.44.34-.29.52-.64.52-1.05v-43.18c0-.41-.17-.76-.52-1.05-.35-.29-.76-.44-1.24-.44h-8.79c-.48,0-.9.15-1.24.44-.35.29-.52.64-.52,1.05v14.02c0,.47-.16.76-.47.88-.31.12-.67.09-1.09-.09-1.24-.47-2.58-.89-4.03-1.27-1.45-.38-3-.69-4.65-.92-.48-.06-.9-.25-1.24-.57-.35-.32-.52-.68-.52-1.1v-10.95c0-.41-.16-.76-.47-1.05-.31-.29-.74-.44-1.29-.44h-8.79c-.48,0-.9.15-1.24.44-.35.29-.52.64-.52,1.05v43.18c0,.41.17.76.52,1.05.34.29.76.44,1.24.44Z"/>
        <path class="cls-2" d="M526.97,262.71h25.23c.48,0,.9-.14,1.24-.44.34-.29.52-.64.52-1.05v-5.96c0-.41-.17-.76-.52-1.05-.35-.29-.76-.44-1.24-.44h-12.92c-.48,0-.9-.14-1.24-.44-.35-.29-.52-.64-.52-1.05v-9.72c0-.41.14-.83.41-1.27.27-.44.65-.74,1.14-.92.89-.35,2.05-.66,3.46-.92,1.41-.26,3.19-.33,5.32-.22,1.1,0,1.72-.47,1.86-1.4l.62-5.96c.07-.41-.05-.77-.36-1.09-.31-.32-.71-.48-1.19-.48-1.86-.12-3.58-.12-5.17,0-1.59.12-3.03.32-4.34.61-1.17.17-1.76-.21-1.76-1.14v-2.8c0-.41.17-.76.52-1.05.34-.29.76-.44,1.24-.44h12.92c.48,0,.9-.14,1.24-.44.34-.29.52-.64.52-1.05v-5.96c0-.41-.17-.76-.52-1.05-.35-.29-.76-.44-1.24-.44h-25.23c-.48,0-.9.15-1.24.44-.35.29-.52.64-.52,1.05v43.18c0,.41.17.76.52,1.05.34.29.76.44,1.24.44Z"/>
        <path class="cls-2" d="M563.16,262.71h8.79c.48,0,.89-.14,1.24-.44.34-.29.52-.64.52-1.05v-14.8c0-.47.16-.86.47-1.18.31-.32.74-.54,1.29-.66.55-.12,1.19-.26,1.91-.44.72-.17,1.53-.41,2.43-.7.48-.12.98-.12,1.5,0,.52.12.91.35,1.19.7,1.17,1.46,2.34,3.55,3.52,6.26,1.17,2.72,1.83,6.32,1.96,10.82,0,.41.17.76.52,1.05.34.29.76.44,1.24.44h8.79c.48,0,.89-.14,1.24-.44.34-.29.52-.64.52-1.05-.14-5.31-.91-9.77-2.33-13.36-1.41-3.59-2.95-6.5-4.6-8.72-.62-.82-.52-1.58.31-2.28,1.38-1.17,2.53-2.47,3.46-3.9.93-1.43,1.4-3.05,1.4-4.86s-.41-3.33-1.24-4.73c-.83-1.4-1.96-2.61-3.41-3.64-1.45-1.02-3.14-1.81-5.07-2.36-1.93-.55-4.03-.83-6.31-.83h-19.33c-.48,0-.9.15-1.24.44-.35.29-.52.64-.52,1.05v43.18c0,.41.17.76.52,1.05.34.29.76.44,1.24.44ZM573.71,226.97c0-.41.17-.76.52-1.05.34-.29.76-.44,1.24-.44h7.03c1.31,0,2.26.25,2.84.74.59.5.88,1.04.88,1.62,0,.93-.41,1.78-1.24,2.54s-1.81,1.43-2.95,2.01c-1.14.58-2.33,1.08-3.57,1.49-1.24.41-2.27.73-3.1.96-1.1.23-1.65-.14-1.65-1.14v-6.75Z"/>
        <path class="cls-2" d="M608.35,262.71h8.79c.48,0,.89-.14,1.24-.44.34-.29.52-.64.52-1.05v-43.18c0-.41-.17-.76-.52-1.05-.35-.29-.76-.44-1.24-.44h-8.79c-.48,0-.9.15-1.24.44-.35.29-.52.64-.52,1.05v43.18c0,.41.17.76.52,1.05.34.29.76.44,1.24.44Z"/>
        <path class="cls-2" d="M624.6,225.48h8.89c.48,0,.89.15,1.24.44.34.29.52.64.52,1.05v34.25c0,.41.16.76.47,1.05.31.29.74.44,1.29.44h8.79c.48,0,.9-.14,1.24-.44.34-.29.52-.64.52-1.05v-34.25c0-.41.16-.76.47-1.05.31-.29.74-.44,1.29-.44h8.89c.48,0,.9-.14,1.24-.44.34-.29.52-.64.52-1.05v-5.96c0-.41-.17-.76-.52-1.05-.35-.29-.76-.44-1.24-.44h-33.6c-.55,0-.98.15-1.29.44-.31.29-.47.64-.47,1.05v5.96c0,.41.15.76.47,1.05.31.29.74.44,1.29.44Z"/>
        <path class="cls-2" d="M380.37,130.19c-13.99,0-23.68,10.06-23.68,24.42,0,13.26,9.6,24.41,25.05,24.41,11.61,0,18.74-7.04,18.74-7.04l-4.84-8.04s-5.58,5.21-13.08,5.21c-7.04,0-13.07-4.3-13.99-12.53h32.18s.28-2.93.28-4.3c0-12.34-7.31-22.13-20.66-22.13ZM368.94,148.57c1.28-5.85,5.49-9.42,11.43-9.42,4.75,0,8.6,3.84,8.78,9.42h-20.21Z"/>
        <path class="cls-2" d="M423.46,142.63h-.18s.18-1.19.18-2.93v-2.74c0-3.93-2.1-5.67-6.22-5.67h-10.61v9.88h3.66c1.28,0,2.01.64,2.01,2.01v34.75h11.52v-18.47c0-2.74.36-5.3,1.01-7.59,2.1-6.95,7.77-9.79,12.71-9.79,1.65,0,2.83.19,2.83.19v-11.43s-1.09-.18-2.1-.18c-7.13,0-12.71,5.3-14.81,11.98Z"/>
        <path class="cls-2" d="M495.23,166.13v-34.83h-11.61v21.4c0,8.32-4.66,15.72-13.07,15.72-5.76,0-7.23-3.84-7.23-9.51v-21.49c0-4.21-1.83-6.13-6.12-6.13h-11.06v9.88h3.66c1.28,0,2.01.64,2.01,2.01v18.11c0,12.71,6.12,17.74,16.09,17.74,8.04,0,13.9-4.85,16.09-9.69h.18s-.09,1-.09,2.1v1.28c0,3.29,2.1,5.21,6.13,5.21h10.7v-9.78h-3.66c-1.28,0-2.01-.73-2.01-2.01Z"/>
        <path class="cls-2" d="M552.8,166.13v-18.2c0-12.34-5.94-17.74-16.27-17.74-9.42,0-14.45,5.76-16.46,9.69h-.18s.18-1,.18-2.01v-1.37c0-3.29-2.01-5.21-6.12-5.21h-10.7v9.88h3.66c1.28,0,2.01.64,2.01,2.01v34.75h11.52v-21.4c0-2.19.27-4.3.91-6.22,1.65-5.58,6.31-9.51,12.53-9.51,5.85,0,7.31,3.84,7.31,9.51v21.4c0,4.39,1.83,6.22,6.22,6.22h11.07v-9.78h-3.66c-1.28,0-2.01-.73-2.01-2.01Z"/>
        <path class="cls-2" d="M611.62,166.13v-18.2c0-12.34-5.94-17.74-16.27-17.74-9.42,0-14.45,5.76-16.46,9.69h-.18s.18-1,.18-2.01v-1.37c0-3.29-2.01-5.21-6.12-5.21h-10.7v9.88h3.66c1.28,0,2.01.64,2.01,2.01v34.75h11.52v-21.4c0-2.19.27-4.3.91-6.22,1.65-5.58,6.31-9.51,12.53-9.51,5.85,0,7.31,3.84,7.31,9.51v21.4c0,4.39,1.83,6.22,6.22,6.22h11.06v-9.78h-3.66c-1.28,0-2.01-.73-2.01-2.01Z"/>
        <path class="cls-2" d="M645.58,130.19c-13.99,0-23.68,10.06-23.68,24.42,0,13.26,9.6,24.41,25.05,24.41,11.61,0,18.74-7.04,18.74-7.04l-4.84-8.04s-5.58,5.21-13.08,5.21c-7.04,0-13.07-4.3-13.99-12.53h32.18s.28-2.93.28-4.3c0-12.34-7.31-22.13-20.66-22.13ZM634.14,148.57c1.28-5.85,5.49-9.42,11.43-9.42,4.75,0,8.6,3.84,8.78,9.42h-20.21Z"/>
        <path class="cls-2" d="M688.66,142.63h-.18s.18-1.19.18-2.93v-2.74c0-3.93-2.1-5.67-6.22-5.67h-10.61v9.88h3.66c1.28,0,2.01.64,2.01,2.01v34.75h11.52v-18.47c0-2.74.36-5.3,1.01-7.59,2.1-6.95,7.77-9.79,12.71-9.79,1.65,0,2.83.19,2.83.19v-11.43s-1.09-.18-2.1-.18c-7.13,0-12.71,5.3-14.81,11.98Z"/>
        <path class="cls-2" d="M722.42,143.36c0-2.74,2.84-4.21,6.95-4.21,2.56,0,5.85,1.1,5.85,3.29v2.29h10.24v-4.85c0-7.59-10.06-9.69-16.37-9.69-9.69,0-18.1,4.3-18.1,13.62,0,15.09,24.59,14.99,24.59,21.58,0,3.11-2.74,4.57-6.31,4.57-7.96,0-13.9-6.86-13.9-6.86l-5.49,7.59s6.58,8.32,19.38,8.32c10.15,0,17.92-5.49,17.92-14.26,0-15.54-24.78-14.08-24.78-21.4Z"/>
        <path class="cls-2" d="M346.14,166.13v-51.22c0-4.3-1.92-6.22-6.22-6.22h-7.65c-1.59-2.48-4.35-4.13-7.51-4.13-4.93,0-8.93,4-8.93,8.93s4,8.93,8.93,8.93c3.04,0,5.73-1.53,7.34-3.86h.41c1.28,0,2.01.64,2.01,2.01v12.54c0,1.56.09,2.74.09,2.74h-.18s-3.29-5.67-13.44-5.67c-12.34,0-21.21,9.6-21.21,24.42s8.14,24.41,20.76,24.41c10.69,0,14.54-7.59,14.54-7.59h.18v1.74c0,2.74,1.56,4.75,5.76,4.75h10.69v-9.78h-3.56c-1.28,0-2.01-.73-2.01-2.01ZM323.1,169.24c-6.86,0-11.52-5.76-11.52-14.63s5.3-14.45,11.7-14.45c7.77,0,11.52,7.13,11.52,14.35,0,10.33-5.67,14.72-11.7,14.72Z"/>
        <path class="cls-2" d="M268.31,130.19c-14.17,0-25.51,10.15-25.51,24.42s11.34,24.41,25.51,24.41,25.6-10.06,25.6-24.41-11.34-24.42-25.6-24.42ZM268.31,169.15c-7.5,0-13.81-5.85-13.81-14.54s6.31-14.54,13.81-14.54,13.9,5.94,13.9,14.54-6.31,14.54-13.9,14.54Z"/>
        <path class="cls-2" d="M193.28,267.01l10.13.83c1.76.14,3.16,1.54,3.31,3.31l.83,10.13c.11,1.29,1.99,1.29,2.09,0l.83-10.13c.14-1.76,1.54-3.16,3.31-3.31l10.13-.83c1.29-.11,1.29-1.99,0-2.09l-10.13-.83c-1.76-.14-3.16-1.54-3.31-3.31l-.83-10.13c-.11-1.29-1.99-1.29-2.09,0l-.83,10.13c-.14,1.76-1.54,3.16-3.31,3.31l-10.13.83c-1.29.11-1.29,1.99,0,2.09Z"/>
        <path class="cls-2" d="M267.23,307.62l-1.13.14c-4.06.49-7.94-1.86-9.38-5.69l-.4-1.06c-.48-1.26-2.31-1.11-2.57.21l-.22,1.11c-.79,4.02-4.22,6.97-8.31,7.16l-1.13.05c-1.35.06-1.77,1.85-.59,2.51l.99.55c3.57,1.99,5.33,6.17,4.25,10.12l-.3,1.1c-.36,1.3,1.22,2.26,2.21,1.34l.83-.77c3-2.78,7.52-3.16,10.94-.91l.95.62c1.13.74,2.52-.46,1.96-1.69l-.48-1.03c-1.72-3.72-.68-8.12,2.51-10.68l.89-.71c1.05-.84.34-2.54-1-2.38Z"/>
        <path class="cls-2" d="M657.34,302.68l-10.35-4.13c-1.36-.54-2.7.8-2.16,2.16l4.13,10.35c.1.25.17.51.21.78l1.6,11.03c.21,1.45,2.05,1.94,2.95.79l6.9-8.76c.17-.21.36-.4.57-.57l8.76-6.9c1.15-.9.66-2.75-.79-2.95l-11.03-1.6c-.27-.04-.53-.11-.78-.21Z"/>
        <path class="cls-2" d="M683.71,256.52c2.2,1.97,2.44,5.34.54,7.61l-5.85,6.97c-.64.76.12,1.89,1.07,1.58l8.65-2.83c2.81-.92,5.85.55,6.86,3.33l3.11,8.55c.34.93,1.69.84,1.9-.14l1.87-8.9c.61-2.9,3.4-4.79,6.32-4.27l8.96,1.58c.98.17,1.57-1.05.83-1.71l-6.78-6.07c-2.2-1.97-2.44-5.34-.54-7.61l5.85-6.97c.64-.76-.12-1.89-1.07-1.58l-8.65,2.83c-2.81.92-5.85-.55-6.86-3.33l-3.11-8.55c-.34-.94-1.69-.84-1.9.14l-1.87,8.9c-.61,2.9-3.4,4.79-6.32,4.27l-8.96-1.58c-.98-.17-1.57,1.05-.83,1.71l6.78,6.07ZM689.89,259.47l.57-.23c1.97-.79,2.95-3,2.23-4.99l-.21-.57c-.24-.67.54-1.24,1.1-.8l.48.38c1.67,1.31,4.07,1.06,5.43-.56l.39-.47c.46-.55,1.35-.15,1.24.56l-.09.61c-.3,2.1,1.12,4.06,3.21,4.42l.6.11c.7.12.8,1.09.14,1.36l-.57.23c-1.97.79-2.95,3-2.23,4.99l.21.57c.24.67-.54,1.24-1.1.8l-.48-.38c-1.67-1.31-4.07-1.06-5.44.57l-.39.47c-.46.55-1.35.15-1.24-.56l.09-.61c.3-2.1-1.12-4.06-3.21-4.42l-.6-.11c-.7-.12-.8-1.09-.14-1.36Z"/>
        <path class="cls-2" d="M732.33,227.73l3.09.17c1.06.06,1.69,1.22,1.16,2.14l-1.54,2.66c-.78,1.34.85,2.79,2.09,1.86l2.5-1.87c.85-.63,2.07-.16,2.26.89l.56,3.07c.28,1.53,2.45,1.58,2.8.06l.69-3c.24-1.04,1.49-1.46,2.3-.78l2.38,1.98c1.2,1,2.89-.37,2.18-1.75l-1.39-2.69c-.49-.95.2-2.08,1.27-2.08h3.04c1.56,0,1.99-2.13.56-2.73l-2.82-1.19c-.98-.42-1.18-1.73-.36-2.41l2.34-1.95c1.19-1,.16-2.91-1.33-2.46l-2.98.9c-1.02.31-2-.56-1.82-1.61l.53-3.06c.27-1.53-1.76-2.32-2.6-1.02l-1.69,2.6c-.58.89-1.89.86-2.43-.06l-1.57-2.69c-.78-1.34-2.84-.64-2.65.9l.38,3.02c.14,1.06-.9,1.89-1.9,1.52l-2.88-1.04c-1.46-.53-2.6,1.33-1.46,2.39l2.23,2.06c.79.73.52,2.03-.49,2.39l-2.85,1.03c-1.46.53-1.15,2.68.41,2.77Z"/>
        <path class="cls-2" d="M698.6,218.2l.7.3c.51.22.79.78.65,1.32l-.19.74c-.16.63.4,1.2,1.03,1.06l.75-.17c.54-.12,1.09.17,1.3.69l.28.71c.24.6,1.03.74,1.45.25l.51-.58c.37-.42.99-.51,1.45-.21l.65.41c.55.35,1.26,0,1.32-.65l.07-.76c.05-.55.5-.99,1.05-1.02l.76-.05c.64-.04,1.02-.75.69-1.3l-.39-.66c-.28-.48-.18-1.09.25-1.45l.59-.49c.5-.41.38-1.2-.21-1.46l-.7-.3c-.51-.22-.79-.78-.65-1.32l.19-.74c.16-.63-.4-1.2-1.03-1.06l-.75.17c-.54.12-1.09-.17-1.3-.69l-.28-.71c-.24-.6-1.03-.74-1.45-.25l-.51.58c-.37.42-.98.51-1.45.21l-.65-.41c-.55-.35-1.26,0-1.32.65l-.07.76c-.05.55-.5.99-1.05,1.02l-.76.05c-.64.04-1.02.75-.69,1.3l.39.66c.28.48.18,1.09-.25,1.45l-.59.49c-.5.41-.38,1.2.21,1.46Z"/>
        <path class="cls-2" d="M778.32,125.87c.57.64.67,1.57.24,2.31l-2.68,4.61c-.96,1.65.76,3.57,2.5,2.79l4.88-2.16c.78-.35,1.7-.15,2.27.49l3.56,3.97c1.27,1.42,3.63.38,3.43-1.52l-.55-5.3c-.09-.85.38-1.66,1.16-2.01l4.87-2.16c1.75-.77,1.48-3.33-.38-3.73l-5.21-1.12c-.84-.18-1.46-.88-1.55-1.73l-.55-5.3c-.2-1.9-2.71-2.44-3.67-.79l-2.68,4.61c-.43.74-1.28,1.12-2.12.94l-5.21-1.12c-1.87-.4-3.16,1.82-1.88,3.24l3.56,3.97Z"/>
        <path class="cls-2" d="M628.6,338.97h-343.44c-.95,0-1.71.87-1.71,1.94s.77,1.94,1.71,1.94h343.44c.94,0,1.71-.87,1.71-1.94s-.77-1.94-1.71-1.94Z"/>
        <path class="cls-2" d="M786.04,87.22h-379.83c-5.43-10.55-16.27-17.25-28.21-17.25h-110.96l-.13-.18h-.08c-7.8-11.38-17.14-21.49-27.8-30.07-24.79-19.8-54.84-30.27-86.93-30.27C75.17,9.46,12.59,72.04,12.59,148.98s62.59,139.52,139.52,139.52c5.51,0,11.06-.33,16.53-.97l2.47,5.63c4.42,10.05,14.37,16.55,25.34,16.55h18.85l3.71,12.06c9.13,29.72,36.16,49.73,67.25,49.79l317.59.73c41.86,0,79.25-26.19,93.63-65.38,20.44-5.45,38.35-18.71,49.51-36.67,21.47-8.71,36.01-23.26,48.48-48.43l.96-1.95c13.7-2.02,24.25-13.69,24.25-27.95,0-6.37-2.19-12.18-5.73-16.91l.7-1.78,10.61-26.83c5.27-13.32,3.61-28.36-4.45-40.22-8.06-11.86-21.43-18.94-35.78-18.94ZM810.81,190.38l-2.4.3-.98.12c-.39.05-.71.24-.93.5-.35.4-.46.98-.25,1.5.02.04.03.08.05.12.04.08.09.17.16.24.01.01.02.03.03.04l.08.09.55.65,1.56,1.86c.13.15.22.32.28.48.2.58-.02,1.18-.43,1.55-.02.02-.04.03-.06.05-.42.34-1.01.45-1.6.13l-.79-.44-.32-.18-1.87-1.03c-.09-.05-.18-.03-.27-.06-.04-.01-.08-.02-.12-.03-.22-.05-.44-.06-.65,0-.31.07-.59.24-.8.47-.23.26-.38.61-.35,1.02l.08,1.16.05.73.07.94.04.57c.02.22-.02.41-.09.58-.09.22-.22.4-.4.54-.1.08-.22.16-.34.22-.06.03-.12.05-.18.07-.16.05-.32.08-.49.07-.06,0-.11,0-.17-.01-.39-.05-.77-.21-1.02-.6-.03-.05-.06-.1-.09-.16l-.26-.56-1.18-2.52c-.43-.92-1.61-1.11-2.31-.48-.1.09-.19.2-.27.32l-.2.32-.15.24-1.45,2.33c-.05.07-.1.14-.15.2,0,.01-.02.02-.03.03,0,0-.02.02-.03.02-.13.13-.27.23-.42.3-.14.06-.29.1-.44.12-.24.02-.49-.01-.72-.11h0s-.01,0-.02-.01c-.04-.02-.07-.05-.1-.08-.02-.02-.04-.04-.06-.06-.06-.04-.12-.07-.17-.12-.22-.17-.4-.39-.5-.66,0-.02,0-.04-.02-.07-.05-.19-.07-.4-.02-.63l.55-2.85.02-.11h0s.07-.37.07-.37c.06-.29.03-.56-.07-.8-.28-.73-1.12-1.17-1.93-.84l-2.67,1.08-.48.2c-.88.35-1.66-.16-1.91-.87-.18-.5-.11-1.09.38-1.54l2.02-1.89.28-.26.19-.18c.15-.14.26-.29.33-.45,0,0,0,0,0,0,0-.02.01-.03.02-.05.06-.15.1-.31.1-.47,0-.01,0-.02,0-.03,0-.05,0-.1,0-.14-.04-.52-.38-1.02-.92-1.24-.07-.03-.11-.09-.19-.11l-3.3-.82c-.91-.23-1.18-1.06-.99-1.78.06-.23.17-.45.32-.64.19-.23.46-.39.84-.44l3.38-.42c.85-.11,1.36-.87,1.28-1.62-.03-.27-.14-.54-.34-.78l-2.19-2.61c-.32-.39-.41-.82-.32-1.22,0-.01,0-.02.01-.04.02-.07.03-.13.06-.19.29-.75,1.19-1.25,2.07-.76l2.98,1.65c.75.42,1.63.09,2-.57,0-.01.01-.02.02-.03,0-.01.01-.03.02-.05.02-.04.04-.09.06-.13.01-.03.02-.06.03-.09,0-.03.02-.06.03-.1,0-.03,0-.05.01-.08,0-.04.01-.08.02-.12,0,0,0,0,0,0,0-.07,0-.14,0-.21l-.03-.44-.21-2.95c-.09-1.23,1.18-1.85,2.09-1.42.28.13.52.36.68.7l.48,1.03.96,2.06c.49,1.06,1.96,1.15,2.58.16l.34-.54.11-.17,1.36-2.18c.15-.25.35-.42.57-.53.07-.04.15-.07.22-.09.23-.07.46-.07.69-.03,0,0,.01,0,.02,0,.07.01.14.03.21.06h0s0,0,0,0c.07.03.12.07.18.11.22.12.41.28.56.48h0c.17.25.27.55.22.91,0,.04,0,.08-.01.13l-.61,3.16-.03.18c-.08.43.02.83.25,1.14.3.41.8.66,1.34.61.13-.01.27-.05.41-.1l2.2-.89.95-.38c.56-.23,1.04-.04,1.41.27.25.21.4.45.48.77.04.17.07.35.06.53-.02.3-.13.59-.41.85l-.3.28-1.24,1.16-.94.88c-.4.37-.51.86-.41,1.32.04.21.12.41.25.58.12.18.29.31.49.42.04.02.07.04.11.06.01,0,.02.01.03.02.05.03.09.06.15.08.01,0,.02.02.04.02l.68.17,1.42.35.78.19.43.11c.35.09.61.27.79.5.23.29.33.65.31,1-.04.64-.47,1.26-1.27,1.36ZM197.79,199.24h0c3.12-2.91,5.92-6.15,8.51-9.54,6.62-8.7,11.21-18.85,13.8-29.45.7-3.05,1.21-6.1,1.53-9.14.88-8.43.34-16.81-1.45-24.86-.07-.31-.14-.62-.21-.94-.2-.84-.41-1.68-.63-2.51-.1-.38-.21-.76-.31-1.13-.09-.33-.19-.66-.29-.99-.08-.27-.16-.54-.24-.81,2.77,0,5.75,0,8.9,0,.34,1.27.65,2.55.93,3.84,4.99,22.55,1.43,46.98-12.41,66.84-2.71,4.1-5.81,7.85-9.2,11.35-.96,1-1.95,1.98-2.96,2.94-.06.06-.12.11-.17.16h0s-5.77-5.77-5.77-5.77ZM142.18,60.42c0,1.24,0,2.49.02,3.73,0,.54-.43.97-.97.95-4.77-.25-9.54.4-14.2,1.44-1.17.26-2.33.54-3.48.84-5.41,1.53-10.7,3.5-15.69,6.08-.45.23-.9.47-1.35.72-1.79.98-3.54,2.04-5.24,3.19-.11.08-.22.14-.32.19-.32.17-.62.24-.93.15-.2-.06-.4-.17-.63-.36-1.04-.9-2.12-1.77-3.23-2.66-.76-.61-1.53-1.23-2.34-1.89,8.66-7.27,19.14-12.02,30.12-14.51.53-.12,1.06-.24,1.6-.35,2.67-.52,4.55-.85,5.94-1.12,2.19-.43,3.11-.72,3.87-1.39.04-.04.09-.08.13-.12.04-.03.07-.07.11-.11,1.09-1.13,2.05-3.24,6.55-8.08h0c.12,4.44.05,8.87.05,13.31ZM223.62,108.87c-2.21,0-4.34,0-6.37,0h-3.19c-1.77-3.68-3.73-7.26-6.05-10.62-10.68-15.46-26.87-27.19-46.56-31.63-7.32-1.52-10.76-1.38-14.43-1.7-.23-.06-.45-.13-.66-.22h0v-16.82h0c.32.36.67.74,1.02,1.13,2,2.2,4.36,4.78,5.21,6.35.92,1.35,1.84,1.21,3.04,1.36.32.04.66.1,1.03.21,6.85,1.11,13.74,2.66,20.25,5.16,2.82,1.08,5.56,2.34,8.2,3.81,18.04,9.38,31.13,25.01,38.51,42.97h0s0,0,0,0ZM147.06,79.23c.08,0,.16,0,.24.01,2.22.1,4.45.26,6.69.61,0,0,0,0,0,0,.06,0,.12.02.18.03.75.12,1.5.26,2.24.4.44.09.89.17,1.33.26.01,0,.03,0,.04,0,0,0,0,0,.01,0,1.11.24,2.21.52,3.3.83.02,0,.04.01.07.02.08.02.17.05.25.08,1.03.3,2.06.62,3.09.96,0,0,0,0,0,0,0,0,0,0,0,0,1.12.37,2.21.8,3.28,1.24.47.19.94.39,1.41.59.05.02.11.04.16.07.51.22,1.02.42,1.53.65,1.75.8,3.44,1.68,5.09,2.63,0,0,0,0,0,0,.49.28.97.56,1.45.85.36.22.72.44,1.08.67,1.02.64,2.02,1.29,3,1.99,1.63,1.16,3.25,2.32,4.76,3.63.02.02.04.03.06.05.53.46,1.05.93,1.56,1.41.49.46.97.93,1.44,1.4.21.21.42.42.63.63,1.89,1.92,3.67,3.95,5.34,6.07.04.05.08.11.12.16,1.07,1.41,2.05,2.89,3.01,4.39h0s0,0,0,0c-11.9,0-19.15,0-23.85,0-5.67,0-7.63,0-9.57,0-1.24-.05-2.3.27-3.17.85-.17.11-.34.24-.5.37-.32.27-.6.57-.86.91-.06.08-.12.17-.18.26-.64.94-1.05,2.09-1.2,3.29-.06.46-.08.93-.06,1.4,0,.83,0,1.66,0,2.49,0,4.99-.05,9.98-.06,14.97-.01,7.02.07,14.04.52,21.04.03.46.06.92.09,1.38-.04.01-.09.03-.13.04-5.1-8.54-10.68-16.76-16.33-24.95-3.55-5.16-7.13-10.3-10.62-15.5-1.31-1.91-2.64-3.81-3.93-5.74-.05-.07-.1-.14-.16-.2-.48-.53-1.17-.61-2.27-.65-5.91-.03-9.29-.2-9.74,4.67.06,12.58.06,25.16.05,37.73,0,4.18,0,8.36,0,12.54,0,.36,0,.63-.03.84-.05.33-.17.5-.48.62-.26.1-.65.17-1.24.27-.26.05-.52.08-.78.12-.69.11-1.38.21-2.06.29-.87.05-2.95.34-5.25.61-.22.03-.44.05-.66.07-2.76.31-5.74.54-7.35.26-.58-.1-.98-.27-1.14-.52-3.29-4.38-9.73-4.24-13.64-.88,0,0-.02.01-.03.02-.23-.67-.44-1.34-.65-2.01-1.5-4.8-2.45-9.53-2.89-14.15-.19-1.99-.29-3.96-.3-5.91,0-1.04.02-2.08.06-3.11.17-3.88.7-7.66,1.55-11.31.6-2.57,1.35-5.08,2.24-7.52.03-.07.05-.14.08-.21.16-.43.32-.85.49-1.27.1-.25.2-.51.31-.76.54-1.33,1.13-2.64,1.75-3.93,9.4-19.28,28.16-33.15,50.37-35.72.28-.03.55-.08.83-.11.06,0,.13-.01.19-.02,2.38-.25,4.79-.32,7.21-.29.67,0,1.33.05,2,.08ZM95.9,81.16s0,0,0,0c0,0,0,0,0,0-10.8,8.34-18.88,19.3-23.9,31.5-6.86,16.66-8.01,35.63-2.59,53.38.91,2.96,2.02,5.85,3.29,8.67,4,8.88,9.72,17,16.69,23.83,6.72,6.59,14.6,11.99,23.23,15.72,9.17,3.82,19,6.51,28.99,6.33.51-.03.78.1.88.46,0,.02,0,.04.01.06,0,.04.02.09.03.14,0,.02,0,.03,0,.05,0,.06,0,.12,0,.18-.09,7.9.1,15.81-.06,23.7,0,0,0,0,0,0h0c-2.63-3.73-5.42-8.06-6.85-12.61-.16-.51-.3-1.02-.42-1.53-.03-.14-.07-.29-.11-.43-.08-.42-.22-.67-.63-.77-.06-.01-.12-.03-.19-.04-1.09-.13-2.18-.29-3.27-.47-14.63-2.44-28.46-9.16-39.92-18.5-22.99-17.96-35.82-47.79-32.43-76.81.54-4.51,1.43-8.97,2.65-13.35,0-.01,0-.02,0-.03.31-1.09.63-2.18.98-3.26,3.81-11.9,10.07-23.04,18.28-32.42,2.71-3.01,5.61-5.85,8.45-8.73,1.2-.91,5.33,4,6.88,4.93ZM140.99,207.62c-1.09-.06-2.18-.15-3.27-.28-.03,0-.06,0-.1,0-2.06-.23-4.14-.56-6.23-1-1.01-.19-2-.42-2.99-.67-.34-.09-.67-.17-1.01-.26-.03,0-.06-.02-.1-.02-.02,0-.04-.01-.07-.02-.84-.22-1.67-.48-2.5-.74,0,0-.02,0-.03,0-.94-.29-1.88-.58-2.8-.92-.07-.03-.14-.05-.21-.08-1.51-.56-2.99-1.18-4.45-1.86-.06-.03-.11-.05-.17-.08-.1-.05-.19-.09-.29-.14-.32-.15-.64-.31-.95-.48-.6-.31-1.19-.63-1.79-.95-.02-.01-.05-.03-.07-.04-.33-.18-.65-.35-.98-.53-.45-.24-.9-.49-1.34-.75-.04-.02-.08-.05-.12-.08-1.07-.64-2.12-1.31-3.16-2.01,0,0-.01,0-.02-.01-.44-.3-.87-.61-1.3-.91-.68-.49-1.35-.99-2.01-1.5-2.56-1.99-4.98-4.16-7.23-6.49-.16-.17-.32-.34-.48-.51-.41-.43-.81-.87-1.21-1.32-.11-.12-.22-.24-.33-.36-.35-.4-.75-.77-1.09-1.18,0,0,0,0,0,0-.02-.02-.03-.04-.05-.05-.09-.09-.18-.19-.27-.28-.02-.02-.03-.03-.05-.05-.06-.06-.12-.13-.18-.19-.03-.03-.05-.06-.08-.08-.05-.06-.1-.11-.15-.17-.03-.04-.06-.07-.09-.11-.04-.05-.08-.1-.12-.15-.03-.04-.06-.08-.1-.12-.03-.04-.07-.09-.1-.13-.03-.05-.07-.09-.1-.14-.03-.04-.05-.08-.08-.11-.04-.05-.07-.11-.1-.16-.02-.03-.04-.06-.05-.09-.05-.08-.09-.16-.12-.24-.12-.27-.17-.52-.11-.73.06-.23.25-.41.61-.53,2.19-.52,3.19-3.36,5.57-3.04,7.83.03,15.66,0,23.49.03,1.28,0,2.54-.46,3.62-1.21.18-.13.35-.26.52-.4.17-.14.33-.29.49-.45,0,0,0,0,0,0,.16-.16.3-.32.44-.48.99-1.17,1.61-2.63,1.61-4.09-.01-1.13-.02-2.26-.02-3.4-.04-12.49.29-25.04-.44-37.45,0,0,0,0,0,0,0,0,0,0,0,0,0,0,0,0,0,0,.7,1.39,1.87,3.37,3.34,5.71.09.14.17.28.26.42.13.2.25.4.38.6.15.23.3.47.45.7,7.19,11.25,19.6,28.81,22.02,32.34,0,.01.02.03.03.04,1.64,2.4,3.3,4.79,4.98,7.15.19.26.61.49.93.49,3.66-.16,9.11,1.33,10.59-3.31.75-15.22.24-30.55.26-45.82h0s0-.06,0-.09c0-2.16.02-4.31.05-6.46,0-.15,0-.3,0-.44.05-1.22.42-1.96,2.43-1.98,1.74-.02,3.51-.03,29.43-.03,0,0,0,0,0,0,.02.06.05.12.07.18.6,1.52,1.15,3.06,1.65,4.62.38,1.18.72,2.38,1.01,3.59h0s-.06,0-.06,0c.21.85.38,1.69.54,2.53.15.79.28,1.57.41,2.36.02.1.04.19.05.29.04.19.07.39.11.58.03.16.06.32.08.47,0,.03,0,.07.01.1.11.82.19,1.64.26,2.46.04.45.07.91.11,1.36.04.46.07.91.1,1.37,0,.06.01.13.01.19.02.31.03.63.05.94,0,.21.02.42.03.63,0,.27.01.53.02.8.03,1.21.04,2.43,0,3.63,0,.13,0,.26-.02.39,0,.02,0,.04,0,.06-1.15,24.58-16.59,46.08-38.2,55.79-.6.27-1.2.53-1.81.78-.01,0-.03.01-.04.02-.22.09-.44.17-.66.26-.19.07-.37.15-.56.22-.17.07-.34.12-.52.19-.38.14-.77.29-1.16.42-6,2.13-12.4,3.32-19.04,3.52-.88.03-1.76.1-2.65.08-.96,0-1.91-.05-2.86-.11ZM146.36,244.55v-23.94h0c7.61.19,15.23-1.49,22.48-3.89,1.39-.46,2.76-.94,4.11-1.44,1.22-.46,2.43-.97,3.61-1.51,4.13-1.87,8.04-4.18,11.75-6.78,1.52-1.07,3.01-2.19,4.47-3.35.06-.07.14-.12.22-.14h0s5.79,5.79,5.79,5.79h0c-12.72,10.98-28.78,18.83-45.62,20.26-.15,5.84-3.43,10.37-6.82,15.01h0ZM232.89,171.88c.14-.41.29-.81.42-1.22.65-1.92,1.24-3.86,1.76-5.82.18-.66.35-1.32.51-1.99.01-.04.02-.09.03-.13,1.58-6.5,2.44-13.19,2.51-19.97,0-.93-.03-1.86-.07-2.79-.27-6.79-1.3-13.52-2.97-20.08h0s0,0,0,0c15.18,0,34.31,0,58.47,0,1.01.98,2.24,1.73,3.61,2.15.82.25,1.7.39,2.61.39,1.2,0,2.34-.24,3.39-.67.16-.07.32-.14.48-.21.14-.07.28-.14.42-.22,2.76-1.52,4.64-4.45,4.64-7.83,0-.46-.03-.91-.1-1.35-.04-.25-.09-.5-.15-.75-.01-.05-.02-.09-.03-.14-.99-3.85-4.49-6.69-8.65-6.69-3.23,0-6.04,1.74-7.61,4.31-18.72,0-34.54,0-47.95,0-3.91,0-7.62,0-11.13,0-.5,0-1,0-1.49,0h0s0,0,0,0c-9.56-24.98-29.07-46.05-54.75-55.1-.31-.11-.63-.2-.94-.31-5.12-1.68-10.34-2.99-15.62-4.07-.94-.19-1.89-.38-2.84-.56-.11-.02-.22-.05-.34-.07-.95-.19-2-.39-2.62-.98-2.91-2.78-5.65-5.74-8.44-8.65-.76-.42-1.5-2.92-2.46-1.71-1.08,1.38-2.26,2.66-3.48,3.91-.85.87-1.71,1.72-2.57,2.58-1.26,1.26-2.51,2.52-3.67,3.86-4.66,1.59-9.82,2.16-14.62,3.64-.22.07-.43.13-.64.2-3.49.94-6.89,2.13-10.21,3.54-8.46,3.59-16.32,8.59-23.43,14.41-19.6,16.96-31.18,40.31-33.62,64.36-2.59,25.6,5.19,51.98,24.72,72.3,14.45,15.88,53.44,31.44,57.56,33.49.2.1.32.17.35.2,2.15,2.61,4.42,5.13,6.68,7.66,1.02,1.14,2.03,2.28,3.03,3.44.78.98,1.4-.69,1.93-1.1,3.04-3.38,6.08-6.76,9.12-10.14.71-.91,5.33-3.85,8.36-4.85,8.26-2.05,16.16-5.03,23.63-9.1,13.04-6.99,24.34-17.03,33-28.95h544.67c1.74,9.78,8.47,17.74,17.48,21.3h0c-9.59,18.31-21.58,31.88-42.84,39.3l-1.01.35-.51.94c-9.95,18.49-28.27,31.53-49,34.89l-1.73.28-.47,1.69c-10.11,36.43-43.56,61.87-81.55,61.87l-319.33-.73c-24.27-.06-45.36-15.68-52.49-38.87l-6.59-21.43-.6-1.94h-30.72c-4.74,0-9.03-2.8-10.93-7.14l-6.55-14.94-.88-2.01-2.16.42c-7.91,1.55-16.02,2.34-24.09,2.34-68.64,0-124.48-55.84-124.48-124.48S81.81,24.24,150.45,24.24c43.68,0,83.39,22.27,106.23,59.57l.8,1.31h120.25c8.33,0,15.35,6.51,15.97,14.82l.19,2.54h394.38c9.29,0,17.61,4.41,22.84,12.09,5.22,7.68,6.26,17.04,2.84,25.68l-10.21,25.8h0c-3.51-1.59-7.35-2.54-11.45-2.54-11.36,0-21.11,6.68-25.64,16.32-1.04,2.22-1.81,4.61-2.25,7.1h0s0,0,0,0H226.07c2.69-4.82,4.98-9.85,6.82-15.05ZM825.14,138.08c-.46,2.38-1.15,4.74-2.06,7.04l-10.61,26.83c-1.03-1.04-2.16-1.98-3.35-2.83-.61-.44-1.24-.86-1.88-1.26l4.86-12.29,5.35-13.52c1.46-3.69,2.21-7.56,2.26-11.42,0-.02,0-.05,0-.07,0,0,0,0,0-.01,0-.28,0-.57,0-.85-.06-3.96-.86-7.89-2.36-11.58-.11-.26-.22-.53-.33-.79-.79-1.8-1.74-3.53-2.87-5.19-5.99-8.82-15.94-14.08-26.6-14.08h-389.38c-.81-4.99-3.42-9.37-7.11-12.48-3.6-3.03-8.22-4.85-13.22-4.85h-117.43c-4.56-7.31-9.75-14.06-15.48-20.18-24.08-25.76-57.68-40.57-93.92-40.57-41.78,0-78.97,19.99-102.52,50.9-1.03,1.35-2.04,2.73-3.01,4.12-14.67,20.92-23.29,46.37-23.29,73.81,0,33.32,12.72,63.73,33.56,86.63.33.36.66.72,1,1.08,1.05,1.13,2.13,2.24,3.22,3.34,23.33,23.33,55.54,37.78,91.05,37.78h0c7.42,0,14.86-.65,22.16-1.92.43-.07.86-.14,1.29-.22h0s5.94,13.55,5.94,13.55c2.63,6,8.57,9.88,15.13,9.88h27.25l2.42,7.87,3.75,12.19c1.32,4.28,3.07,8.33,5.21,12.09.07.12.14.25.21.37.27.46.54.92.82,1.37,10.61,17.27,29.47,28.16,50.53,28.21l318.28.73h.4s0,0,0,0c39.59,0,74.49-26.25,85.51-63.97,21.37-3.83,40.2-17.32,50.69-36.34,22.38-8.01,35.06-22.88,45-42.03,2.15.52,4.36.87,6.67.87.04,0,.07-.01.1-.01,0,0,0,0,0,0-10.45,21.11-23.66,37.75-47.73,47.19h0c-1.72,2.86-3.61,5.59-5.66,8.19-9.83,12.47-23.27,21.85-38.39,26.75-1.89.61-3.81,1.16-5.74,1.63-13.31,38.45-49.91,64.82-91.01,64.82l-317.59-.73c-18.95-.04-36.31-7.87-48.63-20.92-.3-.32-.6-.64-.89-.96-.59-.65-1.17-1.31-1.73-1.98-.56-.67-1.12-1.36-1.65-2.06-3.23-4.18-5.99-8.79-8.2-13.75-.37-.83-.72-1.66-1.06-2.51-.67-1.69-1.28-3.42-1.82-5.19l-4.46-14.48h-21.38c-3.01,0-5.92-.56-8.63-1.59-.54-.21-1.08-.43-1.6-.68-.26-.12-.52-.25-.78-.38-4.89-2.49-8.89-6.62-11.19-11.85l-3.5-7.98c-6.16.84-12.4,1.27-18.64,1.27-75.05,0-136.09-61.05-136.09-136.09h0c0-32.81,11.67-62.94,31.07-86.46.34-.41.68-.82,1.03-1.23,1.38-1.63,2.8-3.24,4.25-4.8.73-.78,1.46-1.56,2.21-2.33.45-.46.89-.92,1.35-1.37,2.16-2.16,4.4-4.25,6.7-6.26,1.39-1.21,2.8-2.4,4.24-3.56.94-.76,1.89-1.5,2.85-2.23,1.11-.85,2.23-1.68,3.37-2.49.23-.16.46-.33.69-.49,1.21-.86,2.43-1.69,3.67-2.51.05-.03.09-.06.14-.09,15.92-10.46,34.16-17.68,53.77-20.69.09-.01.18-.03.27-.04,6.69-1.01,13.53-1.54,20.5-1.54,12.74,0,25.16,1.73,37.01,5.05.52.14,1.03.29,1.54.44,1.54.45,3.07.93,4.59,1.43,2.53.84,5.03,1.75,7.5,2.74.88.35,1.75.71,2.62,1.08,11.31,4.79,21.9,11.1,31.52,18.78,0,0,0,0,.01,0,0,0,.01,0,.02.01,6.2,4.99,11.98,10.55,17.29,16.64,1.33,1.53,2.63,3.09,3.9,4.69,2.4,3.02,4.7,6.16,6.87,9.41h0s.15,0,.15,0c.05.08.12.16.17.24h112.71c6.86,0,13.22,2.5,18.17,6.66,3.38,2.84,6.1,6.47,7.87,10.59,0,0,0,0,0,0h382c13.2,0,25.52,6.52,32.94,17.44.19.28.37.56.55.84,5.6,8.71,7.55,19.16,5.6,29.16Z"/>
      </g>
    </g>
  </g>
</svg>